<?xml version="1.0" encoding="UTF-8" standalone="no"?>
<!-- Created with Inkscape (http://www.inkscape.org/) -->

<svg
   xmlns:dc="http://purl.org/dc/elements/1.1/"
   xmlns:cc="http://creativecommons.org/ns#"
   xmlns:rdf="http://www.w3.org/1999/02/22-rdf-syntax-ns#"
   xmlns:svg="http://www.w3.org/2000/svg"
   xmlns="http://www.w3.org/2000/svg"
   xmlns:sodipodi="http://sodipodi.sourceforge.net/DTD/sodipodi-0.dtd"
   xmlns:inkscape="http://www.inkscape.org/namespaces/inkscape"
   width="23.377724mm"
   height="3.8777332mm"
   viewBox="0 0 82.834454 13.74"
   id="svg2"
   version="1.1"
   inkscape:version="0.91 r13725"
   sodipodi:docname="logo.svg">
  <defs
     id="defs4" />
  <sodipodi:namedview
     id="base"
     pagecolor="#ffffff"
     bordercolor="#666666"
     borderopacity="1.0"
     inkscape:pageopacity="0.0"
     inkscape:pageshadow="2"
     inkscape:zoom="5.6"
     inkscape:cx="35.179166"
     inkscape:cy="2.5761264"
     inkscape:document-units="px"
     inkscape:current-layer="layer1"
     showgrid="false"
     inkscape:window-width="1920"
     inkscape:window-height="1018"
     inkscape:window-x="-8"
     inkscape:window-y="-8"
     inkscape:window-maximized="1"
     fit-margin-top="0"
     fit-margin-left="0"
     fit-margin-right="0"
     fit-margin-bottom="0" />
  <metadata
     id="metadata7">
    <rdf:RDF>
      <cc:Work
         rdf:about="">
        <dc:format>image/svg+xml</dc:format>
        <dc:type
           rdf:resource="http://purl.org/dc/dcmitype/StillImage" />
        <dc:title></dc:title>
      </cc:Work>
    </rdf:RDF>
  </metadata>
  <g
     inkscape:label="Ebene 1"
     inkscape:groupmode="layer"
     id="layer1"
     transform="translate(-145.22289,-409.73492)">
    <g
       style="font-style:normal;font-variant:normal;font-weight:normal;font-stretch:normal;font-size:15px;line-height:125%;font-family:'Futura Std Medium';-inkscape-font-specification:'Futura Std Medium';letter-spacing:0px;word-spacing:0px;fill:#000000;fill-opacity:1;stroke:none;stroke-width:1px;stroke-linecap:butt;stroke-linejoin:miter;stroke-opacity:1"
       id="flowRoot4136">
      <path
         d="m 153.05289,411.09992 q 0,0.015 -0.03,0.09 -0.03,0.075 -0.03,0.105 -0.015,0.12 -0.06,0.39 -0.03,0.27 -0.03,0.3 l 0,0.87 q 0,0.03 -0.015,0.09 -0.015,0.06 -0.03,0.09 0.015,0.285 0,0.825 0,0.165 0.03,0.48 0.045,0.315 0.045,0.3 l -0.15,4.155 q -0.015,0.195 -0.135,1.335 0,0.06 -0.075,0.15 0,0 -0.135,0.165 -0.045,0.045 -0.135,0.12 -0.03,0.015 -0.09,0.03 -0.135,0.075 -0.39,0.225 -0.06,0 -0.165,0.03 -0.81,0.435 -1.08,0.435 -0.03,0 -0.105,-0.09 -0.06,-0.105 -0.09,-0.105 -0.03,0 -0.03,0.015 0,0.015 -0.03,0.015 -0.015,0 -0.375,-0.645 -0.435,-0.78 -0.615,-1.05 -0.015,-0.105 -0.06,-0.33 -0.18,-0.645 -0.345,-1.185 -0.105,0 -0.105,0.255 0.015,0.63 -0.045,0.855 0,0.015 0,1.14 l -0.18,1.605 q 0,0.015 0.015,0.135 0.015,0.12 0.03,0.165 0.03,0.045 0.135,0.135 -0.06,0.105 -0.12,0.195 -0.045,0.105 -0.165,0.105 -0.03,0 -0.075,-0.015 -0.06,0 -0.09,0 -0.03,0 -0.3,0.165 -0.345,0.195 -0.435,0.225 -0.075,0.045 -0.165,0.075 -0.225,0.105 -0.675,0.45 -0.09,0.075 -0.18,0.075 -0.195,0 -0.27,-0.195 -0.3,-0.705 -1.08,-1.395 0,0 0.09,-0.105 0.09,-0.105 0.075,-0.24 -0.03,-0.165 -0.015,-0.195 0.06,-0.24 0.06,-0.15 l 0,-2.715 q 0,-0.03 0.03,-0.165 0.03,-0.15 0.03,-0.18 l 0,-2.865 q 0,-0.615 -0.045,-1.02 -0.06,-0.54 -0.06,-0.45 0,-0.03 0.03,-0.12 0.015,-0.09 0.015,-0.12 0,-0.12 0.03,-0.675 0.015,-0.075 0.03,-0.285 0.03,-0.21 0.03,-0.3 0,-0.03 -0.03,-0.15 -0.015,-0.12 0,-0.165 0,-0.06 0.105,-0.21 l 0.075,0 0.075,0.075 q 0.015,-0.045 0.06,-0.12 0.06,-0.075 0.27,-0.165 1.11,-0.465 1.29,-0.465 0.015,0 0.21,0.105 0.06,0.015 0.15,0.075 0.12,0.195 0.405,0.6 0.135,0.21 0.225,0.39 0.06,0.105 0.195,0.135 0.135,0.015 0.165,0.045 0.18,0.3 0.555,0.96 0.12,0.3 0.525,0.825 l 0.015,-2.13 q -0.06,-1.005 -0.06,-1.125 0,-0.315 0.015,-0.24 -0.045,0 -0.045,-0.045 l 0,-0.15 1.605,-0.645 q 0.105,0.075 0.405,0.105 0.015,0.06 0.225,0.255 0.03,0 0.09,0.015 0.105,0.165 0.42,0.45 0.015,0.015 0.375,0.105 0.21,0.06 0.21,0.27 z m -0.81,-0.225 q -0.135,-0.135 -0.27,-0.27 -0.18,-0.195 -0.255,-0.18 0.39,0.39 0.39,0.435 0,0.075 -0.06,0.105 -0.27,-0.105 -0.57,-0.645 -0.045,-0.105 -0.15,-0.105 l -0.21,0 q -0.03,0.03 -0.03,0.06 0,0.015 0.21,0.33 0.15,0.225 0.24,0.36 0.105,0.135 0.24,0.135 0.12,0 0.435,-0.135 0.03,-0.015 0.03,-0.09 z m -0.705,0.33 q -0.06,-0.06 -0.39,-0.495 -0.285,-0.345 -0.33,-0.345 -0.285,0.09 -0.315,0.24 0.24,0.18 0.495,0.36 0.285,0.24 0.3,0.42 l 0.09,0 q 0.165,-0.15 0.15,-0.18 z m -0.33,0.225 q -0.855,-0.78 -0.87,-0.78 l -0.105,0 -0.03,0.09 q 0.135,0.09 0.555,0.435 0.36,0.285 0.39,0.285 0.045,0 0.06,-0.03 z m -1.035,0.87 0,-0.255 -0.045,0 0,0.255 0.045,0 z m 0.12,1.365 q -0.045,-0.135 -0.15,-0.165 0.075,0.12 0.15,0.165 z m -0.12,0.69 q 0,-0.105 -0.045,-0.195 -0.03,0 -0.015,0.09 0.03,0.075 0.06,0.105 z m 0.72,0.93 q -0.105,-0.225 -0.39,-0.66 0.18,0.405 0.345,0.69 0.015,0.015 0.045,-0.03 z m -2.655,-2.775 q -0.78,-1.17 -0.81,-1.17 -0.03,0 -0.165,0.045 -0.135,0.03 -0.165,0.045 -0.03,0.015 -0.075,0.06 0,0.15 0.36,0.57 0.105,0.135 0.21,0.27 0.315,0.39 0.405,0.39 0.24,-0.105 0.24,-0.21 z m -0.465,0.345 q -0.255,-0.315 -0.705,-0.9 -0.075,-0.12 -0.09,-0.195 -0.06,-0.225 -0.165,-0.255 -0.075,0.06 -0.225,0.195 0.045,0.165 0.165,0.465 0.075,0.12 0.315,0.45 0.285,0.375 0.36,0.375 -0.12,0 0.345,-0.135 z m -1.14,-0.48 0,-0.075 q -0.285,-0.48 -0.3,-0.48 -0.165,0 -0.255,0.195 0.03,0.015 0.555,0.36 z m 6,-1.26 q -0.285,0.075 -0.84,0.255 -0.06,0.075 -0.195,0.21 -0.075,0.03 -0.21,0.135 -0.015,0.045 -0.06,0.45 -0.045,0.255 -0.015,0.405 0,0.015 0,0.165 -0.06,0.585 -0.06,0.555 0,0.09 0.015,0.24 0,0.135 0,0.21 0,0.105 -0.03,0.345 -0.03,0.225 -0.03,0.225 0,0.015 0.015,0.315 0.015,0.285 0.015,0.39 -0.015,0.225 -0.06,0.78 -0.03,0.54 -0.03,0.555 0,0.03 0.09,0.675 0,0.075 0.045,0.27 0.06,0.18 0.06,0.195 -0.06,0.24 -0.15,0.24 -0.105,0 -0.18,-0.3 -0.06,-0.21 -0.12,-0.42 -0.06,-0.21 -0.21,-0.555 -0.225,-0.435 -0.615,-1.2 -0.21,-0.375 -0.57,-1.02 -0.06,-0.03 -0.135,-0.12 -0.195,-0.36 -0.39,-0.735 -0.315,-0.585 -0.405,-0.585 -0.135,0 -0.39,0.15 -0.165,0.105 -0.345,0.21 -0.015,0.015 -0.06,0.045 -0.135,0.075 -0.54,0.24 l 0,0.705 q -0.015,0.885 -0.03,1.26 -0.225,3.225 -0.225,2.895 0,0.435 0.045,0.81 0,0.03 0.03,0.075 0.045,0.03 0.045,0.06 0,0.03 -0.06,0.09 -0.045,0.06 -0.045,0.09 l 0,0.66 q 0,0.03 0.075,0.135 0.075,0.105 0.075,0.135 0,0.075 -0.135,0.135 0,0.03 -0.03,0.12 -0.03,0.075 -0.03,0.105 l 0,0.6 q 0,0.03 -0.03,0.15 -0.015,0.105 -0.015,0.15 0.045,0.3 0.06,0.24 -0.015,0.03 -0.06,0.075 0,0.36 -0.03,0.99 0.705,-0.285 1.14,-0.585 0.18,-0.075 0.39,-0.255 -0.03,-0.075 -0.045,-0.195 0.075,-0.57 0.18,-1.725 0,-0.21 0,-0.57 0.015,-0.42 0.075,-1.23 0.015,-0.12 0.015,-0.54 l 0,-0.69 q 0,0.045 -0.03,-0.51 -0.015,-0.51 -0.015,-0.765 0.015,-0.33 0.15,-0.33 0.075,0 0.105,0.06 0,0.12 0.03,0.33 0.045,0.195 0.15,0.57 0.165,0.375 0.42,1.02 0,0.075 0.015,0.195 0.075,0.105 0.165,0.3 0.24,0.78 0.735,2.325 0.06,0.075 0.09,0.18 0.03,0.105 0.06,0.27 0.12,0.195 0.225,0.195 0.225,0 1.635,-0.705 0,-0.27 0.075,-1.05 0.075,-0.78 0.075,-0.78 l 0.075,-2.325 q 0,-0.705 0.03,-1.035 l 0.015,-3.96 z m -6.825,2.355 q -0.03,-0.075 -0.15,-0.165 l 0,0.225 q 0.03,0 0.075,-0.03 0.06,-0.03 0.075,-0.03 z m 3.135,3.795 0,-0.135 -0.03,0 0,0.135 0.03,0 z m -2.025,-1.74 q 0.015,-0.075 -0.09,-0.075 0.03,0.075 0.09,0.075 z m -1.125,-0.975 q 0.015,-0.045 -0.075,-0.195 -0.03,0.03 -0.03,0.06 0,-0.045 0.105,0.135 z m 1.065,1.41 q 0.015,-0.075 -0.045,-0.12 0,0.09 0.045,0.12 z m -1.095,-0.33 -0.03,-0.015 -0.03,0.06 0.03,0.015 0.03,-0.06 z m 0.03,2.145 q 0,0 0,-0.045 -0.015,-0.03 -0.015,-0.045 -0.045,0 -0.045,0.075 0.03,0 0.06,0.015 z m 0.93,1.47 q -0.15,-0.255 -0.255,-0.36 0.135,0.225 0.255,0.36 z m -0.87,-0.825 q -0.045,-0.135 -0.12,-0.195 0,0.015 -0.03,0.06 l 0.15,0.135 z m -0.09,0.705 -0.03,0 -0.03,0.06 0.03,0.015 0.03,-0.075 z m 0.135,0.825 0,-0.09 q -0.06,-0.06 -0.18,-0.21 -0.03,0.045 -0.03,0.09 0,0.135 0.21,0.21 z m -0.135,0.33 -0.03,-0.015 -0.03,0.06 0.03,0.015 0.03,-0.06 z m 0.06,0.525 q 0,-0.015 -0.015,-0.06 0,-0.045 0,-0.06 -0.03,0.015 -0.06,0.015 0,0.03 0.03,0.075 0.045,0.03 0.045,0.03 z m 0.585,1.17 q -0.135,-0.18 -0.435,-0.51 0.105,0.255 0.405,0.57 0,-0.015 0.03,-0.06 z m 0.225,0.42 q 0,-0.075 -0.045,-0.105 0,0 -0.03,0 -0.03,0.015 -0.03,0.06 0,0.03 0.015,0.045 0.015,0.03 0.015,0.03 0.03,0 0.075,-0.03 z m -0.99,-0.525 -0.045,-0.03 -0.015,0.03 0.03,0.03 0.03,-0.03 z m -0.06,-0.06 -0.09,-0.045 0,0.03 0.075,0.045 0.015,-0.03 z m 1.05,1.275 q -0.06,-0.09 -0.165,-0.15 l 0,0.09 q 0.045,0.045 0.105,0.105 0.015,-0.015 0.06,-0.045 z"
         style="font-style:normal;font-variant:normal;font-weight:normal;font-stretch:normal;font-family:Refuse;-inkscape-font-specification:Refuse;fill:#000000;fill-opacity:1;stroke:none;stroke-opacity:1"
         id="path4145" />
      <path
         d="m 164.30125,418.64492 q 0,0 -0.09,0.255 -1.44,0.75 -1.485,0.75 -0.03,0 -0.105,-0.015 -0.06,-0.03 -0.09,-0.03 -0.045,0 -0.09,0.03 -0.045,0.015 -0.075,0.015 -0.105,0 -0.345,-0.315 -0.96,-1.26 -1.065,-1.26 -0.015,0 -1.05,0.435 -0.615,0.27 -0.885,1.05 -0.135,0.405 -0.27,1.41 -0.015,0.33 -0.12,0.975 -0.015,0.09 -0.135,0.135 -0.105,0.06 -0.195,0.105 0,0 -0.69,0.375 -0.345,0.225 -0.675,0.45 -0.675,0.435 -0.78,0.435 -0.105,0 -0.15,-0.12 -0.045,-0.12 -0.225,-0.12 -0.18,-0.27 -0.555,-0.795 -0.105,-0.135 -0.525,-0.585 -0.33,-0.36 -0.33,-0.405 0,-0.03 0.06,-0.105 0.06,-0.09 0.075,-0.135 0.045,-0.18 0.135,-0.57 0.075,-0.135 0.18,-0.42 0.105,-0.51 0.39,-1.53 0.075,-0.165 0.21,-0.51 0.285,-1.035 0.87,-3.105 -0.015,-0.105 0.015,-0.315 0.075,-0.165 0.18,-0.465 0.105,-0.555 0.3,-1.665 0.15,-0.51 0.315,-1.455 0.045,-0.105 0.135,-0.315 -0.015,-0.06 -0.015,-0.18 0.03,-0.075 0.12,-0.18 0.345,-0.195 0.54,-0.195 0.045,0 0.045,0 0.015,0.015 0.045,0.015 0.045,0 0.66,-0.225 0.615,-0.225 0.645,-0.225 0.21,0 0.585,0.495 0.15,0.135 0.405,0.405 0.135,0.15 0.375,0.42 0,0.03 0,0.06 0,0.06 0.045,0.06 0.03,0 0.045,-0.015 0.015,-0.015 0.06,-0.015 0.135,0 0.24,0.24 0.12,0.225 0.135,0.345 0.03,0.255 0.105,0.42 0.15,0.3 0.42,0.87 0.33,0.72 0.54,1.065 0.27,0.465 0.555,1.14 0.135,0.24 0.39,0.75 0.105,0.285 0.33,0.855 0.21,0.405 0.465,1.095 0.015,0.12 0.165,0.33 0.165,0.21 0.165,0.285 z m -3.87,-7.275 q -0.42,-0.435 -1.065,-1.17 -0.045,-0.015 -0.105,-0.015 -0.09,0 -0.165,0.105 -0.03,-0.015 -0.135,-0.015 -0.435,0 -0.51,0.195 -0.18,0 -0.345,0.09 0.03,0.075 0.09,0.195 0.6,0.645 1.05,1.05 l -0.045,0.045 q -0.63,-0.39 -1.05,-1.065 -0.135,-0.195 -0.24,-0.195 -0.15,0 -0.12,0.105 0.225,0.255 0.645,0.75 0.09,0.165 0.255,0.42 0.135,0.18 0.3,0.18 0.255,0 0.63,-0.36 -0.315,-0.36 -1.005,-1.065 0.03,-0.015 0.045,-0.015 0.075,0 0.165,0.165 0.165,0.09 0.51,0.39 0.015,0.06 0.075,0.165 0.15,0.135 0.39,0.405 0.405,-0.165 0.63,-0.36 z m -3.06,1.425 q -0.06,-0.165 -0.195,-0.435 -0.075,0.15 -0.075,0.165 0.195,0.15 0.27,0.27 z m -0.27,0.315 0,-0.105 -0.045,0 0,0.105 0.045,0 z m -0.12,1.005 q -0.015,-0.105 -0.06,-0.255 -0.075,0 -0.075,0.09 0,0.105 0.135,0.165 z m 0.105,0.075 -0.045,-0.075 -0.045,0.015 0.045,0.06 0.045,0 z m 6.84,4.455 q 0,-0.195 -0.405,-1.11 -0.135,-0.27 -0.39,-0.765 -0.12,-0.345 -0.36,-0.93 -0.285,-0.555 -0.81,-1.575 -0.135,-0.3 -0.345,-0.795 -0.165,-0.36 -0.93,-1.8 -0.225,0.015 -0.825,0.315 -0.18,0.09 -0.375,0.135 -0.24,0.075 -0.285,0.165 -0.15,0.315 -0.345,0.84 -0.195,0.975 -0.615,2.925 -0.075,0.18 -0.195,0.48 -0.045,0.36 -0.18,0.99 -0.165,0.54 -0.285,1.2 -0.06,0.15 -0.165,0.405 -0.015,0.06 -0.255,0.975 -0.03,0.24 -0.135,0.72 0,0.045 -0.075,0.195 -0.06,0.135 -0.06,0.18 0,0.165 0.18,0.345 -0.21,0.09 -0.18,0.09 0,0 -0.06,-0.045 l -0.105,0 q 0.03,0.12 0.12,0.345 -0.06,0.06 -0.165,0.12 -0.27,0.705 -0.27,0.78 0,0.03 0.075,0.105 0.855,-0.465 1.77,-1.035 0.105,-0.075 0.075,-0.225 -0.015,-0.195 -0.015,-0.195 0.06,-0.09 0.12,-0.225 0.09,-0.435 0.255,-1.29 0.18,-1.02 0.33,-1.395 0.105,0.015 0.285,-0.015 0.165,-0.09 1.005,-0.48 0.645,-0.285 0.975,-0.6 0.045,-0.045 0.165,-0.045 0.105,-0.18 0.225,-0.18 0.18,0 0.27,0.3 0.06,0.195 0.105,0.375 0.15,0.255 0.345,0.75 0.105,0.165 0.255,0.51 0.24,0.09 0.24,0.09 1.035,-0.42 1.035,-0.63 z m -7.11,-3.645 q -0.03,-0.03 -0.135,-0.255 0,0.045 0.015,0.135 0,0.09 0,0.12 l 0.12,0 z m -0.81,2.7 q 0,-0.03 -0.015,-0.09 -0.015,-0.06 -0.015,-0.075 -0.045,0 -0.135,0.09 l 0.06,0.075 0.105,0 z m -0.285,1.605 q 0,-0.075 -0.045,-0.105 -0.015,0 -0.015,0.045 0.015,0.045 0.06,0.06 z m 1.05,1.185 q -0.045,0 -0.045,0.075 0.03,0 0.045,-0.03 0.015,-0.045 0,-0.045 z m -0.99,-0.375 0,-0.105 q -0.09,-0.12 -0.255,-0.27 0.045,0.165 0.255,0.375 z m 0.72,0.915 -0.03,-0.135 -0.045,0 0.03,0.135 0.045,0 z m -1.44,-0.225 q -0.075,-0.135 -0.135,-0.135 0,0 0,0.135 l 0.135,0 z m 5.025,-9.675 q -0.09,0.015 -0.165,-0.06 -0.075,-0.09 -0.165,-0.15 -0.09,-0.06 -0.27,-0.18 -0.09,-0.09 -0.285,-0.285 l 0,-0.105 q 0.045,0.06 0.165,0.15 0.045,0 0.135,0.045 0.135,0.105 0.585,0.585 z m 1.035,4.515 q 0,0 -0.03,0.135 -0.03,0.09 0,0.18 0,0.03 -0.03,0.09 -0.015,0.045 -0.12,0.045 -0.03,0 -0.12,-0.045 -0.075,-0.045 -0.105,-0.045 0.075,0 -0.525,0.255 -0.105,0.015 -0.315,0.075 -0.48,0.165 -0.405,0.165 -0.27,0 -0.27,-0.195 0,-0.09 0.15,-0.75 0.12,-0.36 0.27,-1.11 0,-0.09 0.105,-0.945 0,0 0.15,-0.075 0.075,0.045 0.165,0.18 0.12,0.345 0.33,0.75 0.045,0.03 0.105,0.09 0.18,0.27 0.36,0.555 0.285,0.45 0.285,0.645 z m -1.2,-0.435 -0.075,-0.075 -0.03,0.03 0.075,0.075 0.03,-0.03 z m 0.51,0.555 q -0.18,-0.18 -0.51,-0.525 l 0,0.105 q 0.165,0.15 0.42,0.45 0.03,0.015 0.09,-0.03 z m -0.24,0.15 q 0,-0.015 -0.03,-0.135 -0.24,-0.195 -0.435,-0.465 -0.135,0.51 -0.135,0.39 0,0.06 0.105,0.21 0.12,0.15 0.18,0.15 0.105,0 0.315,-0.15 z m -0.51,0.24 q 0,-0.03 -0.03,-0.09 -0.03,-0.075 -0.105,-0.075 0,0.18 0,0.195 0.015,0 0.06,-0.015 0.06,-0.015 0.075,-0.015 z"
         style="font-style:normal;font-variant:normal;font-weight:normal;font-stretch:normal;font-family:Refuse;-inkscape-font-specification:Refuse;fill:#000000;fill-opacity:1;stroke:none;stroke-opacity:1"
         id="path4147" />
      <path
         d="m 172.24469,411.84992 q 0,0.075 -0.435,0.525 -0.495,0.495 -0.57,0.645 -0.105,0.075 -0.27,0.24 -0.09,0 -0.165,-0.24 -0.045,-0.165 -0.39,-0.39 -0.345,-0.225 -0.48,-0.225 -0.225,0 -0.48,0.195 -0.24,0.195 -0.345,0.42 -0.15,0.27 -0.15,0.57 0,0.42 0.255,0.825 0.27,0.405 0.525,0.795 0.045,0.15 0.15,0.405 0.33,0.315 0.765,0.93 0.06,0.06 0.15,0.18 0.255,0.36 0.645,1.005 0.03,0.165 0.12,0.48 0.06,0.09 0.15,0.3 0.18,0.735 0.165,1.005 -0.03,1.17 -0.39,1.74 -0.42,0.66 -1.605,1.29 -0.195,0.06 -0.585,0.165 -0.72,0.225 -0.75,0.225 0.105,0 -0.645,-0.105 -0.15,-0.03 -0.345,-0.06 -0.09,-0.03 -0.69,-0.21 -0.195,-0.06 -0.465,-0.3 -0.15,-0.09 -0.405,-0.315 -0.345,-0.315 -0.825,-0.84 -0.72,-0.75 -0.72,-0.99 0,-0.03 0.315,-0.225 0.315,-0.21 0.39,-0.285 0.045,-0.015 0.135,-0.06 0.18,-0.18 0.345,-0.36 0.36,-0.345 0.45,-0.345 0.135,0 0.69,0.435 0.15,0.045 0.36,0.285 0,0 -0.06,0.03 -0.045,0.015 -0.075,0.045 0.135,0.165 0.45,0.495 0,-0.015 0.015,-0.045 -0.015,-0.045 0,-0.105 0.54,-0.435 0.69,-0.675 0.36,-0.555 0.36,-0.855 0,-0.345 -0.225,-0.585 -0.315,-0.42 -0.975,-1.2 -0.225,-0.18 -0.69,-0.555 -0.03,-0.105 -0.15,-0.3 -0.18,-0.165 -0.495,-0.48 -0.15,-0.18 -0.39,-0.555 -0.285,-0.705 -0.33,-1.155 -0.015,-0.03 -0.045,-0.135 -0.03,-0.105 -0.03,-0.15 0,-0.015 0.06,-0.24 0.075,-0.225 0.09,-0.33 0.075,-0.69 0.54,-1.38 0.495,-0.75 1.245,-1.14 0.03,-0.045 0.075,-0.09 0.27,-0.09 0.765,-0.27 0.015,0 0.075,-0.06 0.075,-0.075 0.12,-0.075 0.03,0 0.105,0.06 0.075,0.045 0.12,0.045 0.195,0.015 0.615,0.045 0.15,0.015 0.42,0.105 0.21,0.15 0.645,0.405 0.18,0.015 0.465,0.09 0.54,0.405 1.635,1.185 0.075,0.06 0.075,0.165 z m -2.79,-1.485 q -0.03,-0.03 -0.03,-0.06 -0.195,-0.165 -0.525,-0.165 -0.03,0 -0.135,0.015 -0.105,0.015 -0.15,0.015 0,0.09 0.105,0.18 0.105,0.075 0.165,0.075 0.12,0 0.57,-0.06 z m -0.93,0.135 q -0.225,-0.405 -0.345,-0.405 -0.15,0 -0.435,0.21 0.21,0.24 0.495,0.42 0.285,-0.12 0.285,-0.225 z m -0.54,0.36 q -0.135,-0.075 -0.375,-0.285 -0.045,-0.105 -0.18,-0.255 -0.12,0.06 -0.315,0.285 -0.195,0.06 -0.27,0.21 0.315,0.225 0.72,0.45 0.15,-0.135 0.15,-0.165 0,-0.12 -0.27,-0.255 -0.27,-0.15 -0.3,-0.18 l 0.045,-0.045 0.075,0 q 0.195,0.105 0.57,0.345 0.06,-0.045 0.15,-0.105 z m -0.645,0.78 0,-0.075 q -0.12,-0.27 -0.645,-0.675 -0.075,0.045 -0.165,0.09 l 0,0.105 q 0.27,0.33 0.81,0.555 z m -0.15,0.27 q 0.03,-0.03 -0.06,-0.09 0.015,0.045 0.06,0.09 z m -0.51,-0.39 q -0.315,-0.33 -0.345,-0.315 -0.015,0 -0.045,0.045 -0.03,0.045 -0.045,0.06 0.105,0.195 0.435,0.21 z m 0.405,0.63 q -0.105,-0.06 -0.285,-0.12 0.135,0.18 0.225,0.3 0.075,-0.135 0.06,-0.18 z m -1.05,0.375 q -0.03,-0.045 -0.12,-0.135 -0.09,-0.105 -0.105,-0.135 -0.045,0.045 -0.105,0.105 0.09,0.135 0.33,0.165 z m 0.705,0.795 q 0.015,-0.105 -0.33,-0.21 0.105,0.105 0.3,0.3 0,-0.06 0.03,-0.09 z m 5.13,-1.41 q 0,-0.06 -0.12,-0.18 -0.105,-0.135 -0.21,-0.135 -0.03,0 -0.045,0.015 0,0.015 -0.03,0.015 -0.075,0 -0.105,-0.06 -0.105,-0.09 -0.24,-0.24 -0.03,-0.075 -0.105,-0.21 -0.06,-0.045 -0.285,-0.195 -0.21,-0.15 -0.24,-0.15 -0.03,0 -0.06,0.045 -0.015,0.03 -0.045,0.03 -0.645,-0.255 -0.675,-0.255 -0.03,0 -0.24,0.045 -0.195,0.03 -0.27,0.045 -0.15,0.015 -0.225,0.12 -0.015,0.06 -0.075,0.12 -0.015,0 -0.09,-0.06 -0.06,-0.06 -0.105,-0.06 -0.015,0 -0.105,0.03 -0.21,0.12 -0.555,0.39 -0.03,0.015 -0.105,0.045 -0.285,0.345 -0.345,0.495 -0.06,0.135 -0.165,0.345 -0.015,0.135 -0.045,0.33 -0.36,0.99 -0.36,1.155 0,0.03 -0.03,0.075 -0.015,0.045 -0.015,0.075 0,-0.12 0.18,0.675 0.27,1.275 1.005,2.115 0.12,0.195 0.345,0.525 0.345,0.36 0.69,0.72 0.495,0.57 0.66,0.945 0,0.045 0.03,0.12 0.03,0.06 0.105,0.165 0.09,0.435 0.09,0.6 0,0.585 -0.54,0.99 -0.18,0.075 -0.465,0.24 -0.015,0.045 -0.075,0.12 -0.03,0 -0.09,-0.045 -0.06,-0.06 -0.09,-0.075 -0.135,-0.03 -0.315,-0.03 -0.045,0 -0.15,0.015 -0.12,0 -0.135,0 -0.525,0 -1.275,-0.75 -0.075,0.045 -0.165,0.09 -0.075,0.045 -0.45,0.45 0,0 -0.24,0.225 -0.15,0.12 -0.135,0.21 0.105,0.06 0.165,0.195 0.06,0.135 0.075,0.165 0.645,0.705 1.305,1.05 0.18,0.03 0.465,0.09 0.6,0.135 0.525,0.135 0.12,0 0.81,-0.24 0.255,-0.06 0.69,-0.27 0.57,-0.405 0.705,-0.525 0.42,-0.315 0.525,-0.495 0.045,-0.135 0.12,-0.345 0.225,-0.45 0.225,-1.11 0,-0.585 -0.105,-0.915 -0.075,-0.285 -0.27,-0.825 -0.045,-0.135 -0.135,-0.33 -0.075,-0.075 -0.165,-0.195 -0.09,-0.33 -0.885,-1.275 -0.12,-0.12 -0.3,-0.345 -0.09,-0.195 -0.3,-0.57 -0.045,-0.135 -0.165,-0.33 -0.585,-0.585 -0.585,-1.245 0,-0.57 0.285,-0.9 0.105,-0.12 0.285,-0.3 0.165,-0.135 0.33,-0.255 0.12,-0.09 0.3,-0.09 0.375,0 1.125,0.705 0.105,-0.06 0.495,-0.45 0.39,-0.405 0.39,-0.465 z m -2.055,7.77 q 0,-0.345 -0.24,-0.825 -0.015,-0.03 -0.06,-0.045 0.09,-0.015 -0.105,-0.015 0,0.015 0.045,0.06 0.045,0.045 0.045,0.075 0,0.045 -0.09,0.09 -0.18,-0.135 -0.54,-0.375 -0.09,0.105 -0.06,0.195 0.15,0.06 0.435,0.195 0.09,0.075 0.285,0.21 0.015,0.015 -0.015,0.06 l -0.075,0 q -0.225,-0.135 -0.63,-0.285 0.315,0.3 0.57,0.465 l -0.045,0.045 q -0.105,-0.015 -0.3,-0.18 -0.105,-0.09 -0.21,-0.195 -0.06,-0.015 -0.18,-0.06 0,0.03 -0.075,0.135 -0.06,0.09 -0.06,0.12 0,0.03 0.435,0.42 0.435,0.375 0.435,0.405 -0.015,0.105 -0.105,0.105 -0.12,0 -0.45,-0.36 -0.255,-0.27 -0.33,-0.39 -0.09,0 -0.225,0.06 -0.105,0.12 -0.285,0.315 -0.135,0.105 -0.375,0.3 0,0.03 0.24,0.165 0.24,0.135 0.285,0.135 l 0.09,0 q 0.03,-0.06 -0.075,-0.135 -0.165,-0.105 -0.165,-0.105 l 0,-0.075 q 0.03,0 0.105,-0.045 0.405,0.375 0.39,0.375 0.045,0 0.075,-0.03 -0.15,-0.15 -0.405,-0.48 0,-0.06 -0.03,-0.165 0.03,-0.03 0.09,-0.015 0.015,0.075 0.06,0.195 0.255,0.18 0.63,0.525 0.255,-0.09 0.555,-0.255 0.045,-0.03 0.195,-0.27 0.165,-0.255 0.165,-0.345 z m -3.015,0.105 q 0,-0.135 -0.045,-0.18 -0.225,-0.255 -0.42,-0.345 -0.195,-0.09 -0.195,-0.015 0,-0.03 0.375,0.495 -0.015,0.015 -0.06,0.015 -0.48,-0.465 -0.51,-0.465 -0.015,0 -0.15,0.075 -0.015,0.045 -0.06,0.12 0.27,0.24 0.75,0.645 0.315,-0.3 0.315,-0.345 z m -0.42,0.435 q -0.615,-0.645 -0.735,-0.645 -0.06,0 -0.24,0.18 l 0.63,0.66 q 0,0.015 -0.045,0.06 -0.15,-0.045 -0.39,-0.33 -0.225,-0.285 -0.285,-0.315 -0.345,0.225 -0.345,0.33 0,0.12 0.255,0.36 0.345,0.315 0.525,0.3 l 0.09,0 q 0.06,-0.075 0.33,-0.345 0.21,-0.225 0.21,-0.255 z m -0.705,0.285 q 0,0.03 -0.03,0.09 -0.27,-0.165 -0.42,-0.345 l 0,-0.09 q 0.03,0 0.09,0.03 0.075,0.135 0.36,0.315 z"
         style="font-style:normal;font-variant:normal;font-weight:normal;font-stretch:normal;font-family:Refuse;-inkscape-font-specification:Refuse;fill:#000000;fill-opacity:1;stroke:none;stroke-opacity:1"
         id="path4149" />
      <path
         d="m 182.13273,419.54492 q 0,0.135 -0.78,1.26 -0.15,0.255 -0.51,0.735 -0.255,0.225 -0.69,0.66 -0.06,0.045 -0.705,0.375 -0.705,0.36 -0.855,0.36 l -0.495,0 q -0.345,0 -0.435,-0.03 -0.165,-0.09 -0.345,-0.195 -0.06,-0.015 -0.21,-0.135 -0.15,-0.12 -0.195,-0.12 -0.045,0 -0.045,0.015 0.015,0.015 -0.015,0.015 -0.21,0 -0.81,-0.375 -0.495,-0.3 -0.69,-0.465 -0.255,-0.18 -0.72,-0.57 -0.33,-0.33 -0.51,-0.57 -0.165,-0.24 -0.51,-0.735 0.015,-0.105 0.015,-0.3 -0.075,-0.315 -0.24,-0.945 -0.105,-0.12 -0.27,-0.375 0.015,-0.015 0.135,-0.06 0.075,-0.045 0.075,-0.09 0,-0.03 -0.12,-0.15 -0.12,-0.12 -0.12,-0.165 0,-0.06 0.045,-0.09 0.105,-0.06 0.135,-0.075 l 0,-0.84 q -0.045,-0.09 -0.15,-0.255 0.135,-0.12 0.135,-0.24 0.045,-0.48 0.18,-1.395 0.12,-0.555 0.42,-1.515 0.075,-0.24 0.21,-0.465 0.48,-0.75 1.38,-1.725 0.285,-0.3 0.75,-0.6 0.375,-0.24 0.57,-0.315 0.615,-0.195 1.17,-0.195 0.3,0 1.185,0.45 0.03,0.03 0.09,0.105 0.195,0.105 0.735,0.54 0.135,0.12 0.45,0.24 0.33,0.12 0.45,0.21 0.135,0.075 0.435,0.345 0.36,0.3 0.36,0.375 0,0.195 -0.18,0.195 -0.075,0 -0.12,-0.03 -0.165,-0.255 -0.27,-0.315 -0.03,-0.03 -0.39,-0.27 -0.045,-0.045 -0.15,-0.135 -0.585,-0.21 -1.29,-0.21 -0.555,0 -1.455,0.435 -0.03,0.015 -0.3,0.27 -0.075,0.03 -0.18,0.09 -0.345,0.24 -0.48,0.435 -0.045,0.135 -0.165,0.36 -0.165,0.18 -0.405,0.555 -0.105,0.18 -0.18,0.435 0.015,0.015 0.03,0.06 0,0.03 -0.06,0.105 -0.06,0.06 -0.06,0.09 -0.135,0.33 -0.21,0.765 -0.015,0.045 -0.075,0.12 0,-0.045 -0.12,0.48 -0.06,0.3 -0.12,0.78 0.015,-0.105 0.015,0.735 0,0.015 -0.045,0.06 -0.03,0.045 -0.03,0.09 0,0.72 0.045,1.035 -0.015,0.105 -0.015,0.3 0.045,0.105 0.105,0.33 -0.015,0.03 -0.045,0.105 0.045,0.765 0.33,1.59 0.135,0.195 0.375,0.57 0.105,0.18 0.36,0.51 0.225,0.225 0.645,0.495 0.435,0.285 0.525,0.315 0.09,0.045 0.405,0.045 0.57,0 1.02,-0.21 0.255,-0.12 0.9,-0.585 0.33,-0.24 0.735,-0.78 0.975,-1.29 0.975,-1.47 0,-0.09 -0.825,-0.84 -0.18,0.105 -0.39,0.435 -0.15,0.24 -0.315,0.495 -0.15,0.24 -0.33,0.465 -0.315,0.405 -0.57,0.54 -0.48,0.255 -0.78,0.255 -0.375,0 -0.51,-0.06 -0.18,-0.06 -0.54,-0.375 -0.525,-0.465 -0.615,-0.945 -0.06,-0.39 -0.165,-1.155 -0.06,-0.21 -0.135,-0.645 -0.03,-0.3 -0.03,-0.705 0,-0.12 0.105,-0.63 0.03,-0.285 0.135,-0.855 0.24,-0.705 0.435,-1.095 0.225,-0.45 0.54,-0.72 0.195,-0.15 0.6,-0.345 0.405,-0.21 0.6,-0.21 0.39,0 0.84,0.33 0.45,0.33 0.6,0.33 0.03,0 0.255,-0.21 0.225,-0.225 0.45,-0.6 0.24,-0.375 0.42,-0.51 l 0.285,0 0,0.105 q -0.15,0.135 -0.405,0.42 -0.135,0.255 -0.42,0.69 -0.15,0.18 -0.42,0.525 -0.03,0.045 -0.12,0.045 -0.15,0 -0.51,-0.3 -0.18,-0.15 -0.36,-0.3 -0.315,-0.225 -0.615,-0.225 -0.15,0 -0.555,0.27 -0.225,0.12 -0.465,0.27 -0.225,0.15 -0.36,0.39 -0.135,0.225 -0.255,0.63 -0.24,0.735 -0.285,0.87 -0.03,0.135 -0.075,0.435 -0.12,0.81 -0.12,0.69 0,0.045 0.18,1.62 0.03,0.195 0.09,0.57 0.015,0.03 0.165,0.27 0.495,-0.21 0.99,-0.675 0.495,-0.48 0.675,-0.9 0.06,-0.03 0.12,-0.12 -0.015,-0.045 0,-0.15 0.075,-0.03 0.24,-0.15 0.165,-0.135 0.21,-0.135 0.165,0 0.3,0.075 0.33,0.285 0.93,0.765 0.06,0 0.15,0.03 0.27,0.24 0.855,0.78 0.03,0.03 0.225,0.33 0.03,0.045 0.09,0.075 0.06,0.03 0.06,0.105 z m -2.61,-8.46 q -0.105,-0.105 -0.63,-0.435 -0.57,-0.36 -0.72,-0.36 l -0.255,0 q -0.045,0.135 0.27,0.465 0.255,0.255 0.525,0.495 0.24,-0.12 0.405,-0.12 0.045,0 0.09,0.015 0.06,0.015 0.105,0.015 0.075,0 0.21,-0.075 z m -1.035,0.165 q -0.15,-0.15 -0.39,-0.405 -0.165,-0.225 -0.405,-0.555 -0.285,0.045 -0.81,0.21 l 0,0.105 q 0.315,0.33 0.915,0.96 0.09,-0.06 0.24,-0.135 0.15,-0.09 0.45,-0.18 z m -0.795,0.33 q -0.075,-0.09 -0.57,-0.585 -0.36,-0.375 -0.42,-0.375 -0.27,0 -0.645,0.405 0.105,0.09 0.165,0.255 0.09,0.21 0.09,0.21 0.12,0.165 0.33,0.42 0.21,0.255 0.24,0.255 0.075,0 0.81,-0.585 z m -0.9,0.72 q 0,-0.09 -0.195,-0.27 -0.135,-0.135 -0.255,-0.255 -0.24,-0.3 -0.405,-0.54 -0.12,-0.045 -0.105,-0.045 -0.045,0.045 -0.225,0.165 -0.09,0.06 -0.09,0.18 0,0.135 0.075,0.225 0.3,0.345 0.84,0.99 0.36,-0.45 0.36,-0.45 z m -0.495,0.615 q 0,-0.075 -0.435,-0.63 -0.42,-0.57 -0.51,-0.57 -0.09,0 -0.435,0.465 -0.165,0.24 -0.345,0.495 0.27,0.18 0.765,0.645 0.435,0.42 0.45,0.42 0.03,0 0.12,-0.105 0.09,-0.105 0.09,-0.18 0,-0.12 -0.825,-0.945 -0.09,-0.045 -0.24,-0.15 l 0,-0.045 0.105,-0.03 q 0.18,0.105 0.465,0.33 0.03,0.03 0.285,0.375 0.165,0.24 0.3,0.27 0.21,-0.3 0.21,-0.345 z m -0.54,1.08 q 0,-0.075 -0.15,-0.21 -0.435,-0.345 -0.93,-0.93 -0.075,-0.045 -0.135,-0.045 -0.105,0 -0.18,0.135 -0.06,0.135 -0.03,0.225 0.435,0.375 1.29,1.125 0.135,-0.21 0.135,-0.3 z m 4.365,5.205 q 0,-0.075 -0.15,-0.135 0.06,0.045 0.15,0.135 z m -4.545,-4.65 -1.26,-1.23 -0.135,0 q 0,0.135 -0.06,0.285 l 1.35,1.23 q 0.03,-0.105 0.105,-0.285 z m 3.885,4.41 q -0.12,-0.165 -0.21,-0.165 0.24,0.165 0.21,0.165 z m -4.08,-3.825 0,-0.105 -0.165,-0.165 q 0.06,0.165 0.165,0.27 z m -0.33,-0.405 q -0.345,-0.39 -0.96,-0.9 -0.09,0.21 -0.09,0.255 0,0.03 0.36,0.315 0.54,0.39 0.63,0.465 0,-0.015 0.03,-0.06 0.03,-0.06 0.03,-0.075 z m 4.77,4.905 q -0.3,-0.36 -0.69,-0.645 0.225,0.255 0.54,0.765 l -0.045,0.06 q -0.12,-0.03 -0.39,-0.315 -0.27,-0.3 -0.39,-0.315 0.24,0.315 0.63,0.9 0.27,-0.21 0.345,-0.45 z m -4.56,-4.035 0,-0.12 q -0.105,-0.12 -0.255,-0.21 0.12,0.225 0.255,0.33 z m -1.02,-0.825 q -0.12,-0.12 -0.36,-0.3 0,0.03 -0.03,0.075 0.195,0.15 0.39,0.225 z m 5.16,5.385 q 0,-0.09 -0.66,-0.885 -0.15,-0.165 -0.24,-0.195 -0.09,0.135 -0.075,0.24 0.21,0.165 0.765,1.005 l 0.105,0 q 0.105,-0.09 0.105,-0.165 z m -5.16,-4.86 q -0.06,-0.06 -0.3,-0.36 -0.105,-0.135 -0.18,-0.135 l 0,0.21 q 0.165,0.105 0.48,0.285 z m 4.845,5.145 q -0.075,-0.195 -0.39,-0.6 -0.345,-0.495 -0.45,-0.495 -0.045,0 -0.36,0.195 -0.36,0.225 -0.495,0.27 0.465,0.81 1.095,0.81 0.06,0 0.6,-0.18 z m -4.83,-4.395 q -0.165,-0.435 -0.555,-0.6 0.045,0.15 0.24,0.33 0.3,0.24 0.315,0.27 z"
         style="font-style:normal;font-variant:normal;font-weight:normal;font-stretch:normal;font-family:Refuse;-inkscape-font-specification:Refuse;fill:#000000;fill-opacity:1;stroke:none;stroke-opacity:1"
         id="path4151" />
      <path
         d="m 190.59859,410.96492 q -0.135,0.21 -0.12,0.555 0,0.54 0,0.6 -0.015,0.615 -0.045,1.875 -0.015,0.585 -0.135,1.065 -0.015,0.09 -0.09,0.27 0,0 0.015,0.015 0,0.015 0,0.045 l 0,1.71 q 0,0.18 -0.045,0.555 l -0.03,2.385 q 0,0.48 -0.135,0.69 -0.27,0.075 -0.405,0.12 -0.15,0.15 -0.465,0.36 -0.48,0.225 -0.765,0.225 -0.045,0 -0.24,-0.135 -0.105,-0.03 -0.285,-0.15 -0.615,-0.54 -1.005,-0.945 -0.015,-0.09 -0.045,-0.27 -0.06,-0.255 -0.03,-0.63 0.015,-0.315 0.045,-0.645 0,-0.03 -0.03,-0.12 -0.15,0.09 -0.33,0.12 -0.12,0.09 -0.12,0.21 0,1.11 0,1.11 0,0.03 0.015,0.09 0.03,0.045 0.03,0.075 l 0,1.65 q 0,0.135 -0.03,0.255 -0.045,0.165 -0.21,0.225 -0.525,0.15 -0.93,0.525 -0.045,0.03 -0.48,0.225 -0.225,0.105 -0.255,0.105 -0.24,0 -0.135,-0.015 -0.075,0.03 -0.105,0.03 -0.06,0 -1.155,-0.96 -0.06,-0.045 -0.06,-0.105 0,-0.075 0.105,-0.165 0,0 -0.12,-0.15 -0.015,-0.075 -0.045,-0.21 -0.015,-0.15 -0.015,-0.18 l 0.15,-3.21 q 0,-0.615 0,-0.675 -0.015,-0.03 -0.075,-0.105 -0.06,-0.09 -0.06,-0.12 0,0.015 0.075,-0.09 -0.015,0.15 -0.015,-1.035 l 0,-1.665 q 0,-0.03 0.045,-0.27 0.06,-0.255 0.06,-0.285 0,-0.09 -0.105,-0.18 0,-0.03 0.12,-0.18 0,-0.09 -0.015,-0.27 -0.015,-0.195 -0.015,-0.27 0,-0.195 0.03,-0.585 0.045,-0.405 0.045,-0.585 0.045,-0.09 0.135,-0.09 0.03,0 0.03,0.015 0,0 0.045,0 0.15,0 1.305,-0.6 0.09,-0.015 0.21,-0.045 0.12,-0.03 0.15,-0.165 0.06,0 0.21,-0.045 0.15,-0.06 0.18,-0.06 0.105,0 0.135,0.06 0.105,0.21 0.45,0.495 0.63,0.495 0.63,0.495 0.21,-0.075 0.15,-0.075 0.045,0 0.045,0.015 0.015,0.015 0.06,0.015 0.09,0 0.12,-0.12 0.045,-0.21 0.075,-0.555 0,-0.18 0,-0.345 0.015,-0.195 0.135,-0.285 0.18,-0.15 0.975,-0.435 0.18,-0.045 0.525,-0.12 0.15,-0.045 0.27,-0.105 0,-0.015 0.075,-0.09 0.09,-0.075 0.12,-0.075 0.015,0 0.12,0.075 0.285,0.495 1.26,1.155 z m -0.63,-0.165 q -0.255,-0.165 -0.24,-0.165 -0.03,0 -0.045,0.03 0,0.03 -0.03,0.03 -0.12,0 -0.24,-0.21 -0.06,-0.135 -0.12,-0.255 -0.195,-0.045 -0.195,-0.045 -0.15,0 -0.27,0.12 0.105,0.105 0.255,0.255 0.345,0.375 0.435,0.375 0.03,0 0.09,0 0.06,-0.015 0.075,-0.015 0.03,0 0.06,0.03 0.045,0.015 0.075,0.015 0.15,0 0.15,-0.165 z m -0.825,0.225 q -0.015,-0.06 -0.27,-0.39 -0.24,-0.345 -0.33,-0.345 -0.18,0 -0.33,0.18 0.045,0.09 0.225,0.375 0.225,0.33 0.3,0.33 0.03,0 0.18,-0.06 0.165,-0.075 0.225,-0.09 z m -0.69,0.24 q -0.015,-0.06 -0.21,-0.375 -0.18,-0.33 -0.285,-0.33 -0.045,0 -0.15,0.105 -0.09,0.09 -0.09,0.135 0,0.045 0.225,0.3 0.225,0.255 0.27,0.255 -0.06,0 0.24,-0.09 z m -0.285,0.6 q 0,-0.045 -0.105,-0.105 0.075,0.12 0.105,0.105 z m -0.675,-0.6 q -0.015,-0.03 -0.06,-0.09 -0.075,0.06 -0.09,0.21 0.015,-0.015 0.075,-0.06 0.075,-0.045 0.075,-0.06 z m 0.585,2.235 q 0,-0.195 -0.39,-0.525 0.135,0.15 0.39,0.525 z m -1.74,-1.515 q -0.21,-0.255 -0.615,-0.435 0.045,0.105 0.135,0.27 l -0.045,0.045 q -0.195,-0.045 -0.405,-0.285 -0.195,-0.255 -0.24,-0.255 -0.105,0 -0.165,0.135 0.54,0.3 0.54,0.645 0,0.075 -0.03,0.045 l -0.09,0 q -0.465,-0.63 -0.705,-0.63 -0.12,0 -0.24,0.075 l 0,0.09 q 0.135,0.195 0.375,0.51 0.105,0.075 0.255,0.21 0.015,0.075 0,0.165 0.315,-0.24 1.23,-0.585 z m 1.71,3.165 -0.045,0 q -0.075,0.075 -0.015,0.135 0.06,-0.03 0.06,-0.135 z m -3.06,-2.595 q -0.12,-0.045 -0.42,-0.42 -0.3,-0.375 -0.33,-0.375 -0.105,0 -0.21,0.105 0.075,0.18 0.345,0.48 0.285,0.285 0.33,0.39 l 0.09,0 q 0.165,-0.12 0.195,-0.18 z m 2.835,3.075 q -0.03,0 -0.225,0 -0.15,0 -0.36,-0.315 -0.21,-0.33 -0.285,-0.33 -0.165,0 -0.165,0.195 0,0.135 0,0.15 0.09,0.075 0.225,0.21 0.3,0.345 0.315,0.345 0.075,0 0.27,-0.09 0.21,-0.105 0.225,-0.165 z m -3.9,-3.45 q -0.015,-0.03 -0.09,-0.15 l -0.12,0 q 0.135,0.12 0.21,0.15 z m 0.63,1.08 0,-0.12 q -0.045,-0.09 -0.18,-0.045 0.06,0.075 0.18,0.165 z m 2.445,2.64 q -0.075,-0.105 -0.21,-0.3 0,0.03 -0.03,0.06 -0.015,0.195 0.03,0.33 l 0.09,0 q 0.06,-0.03 0.12,-0.09 z m -3.375,-2.985 q -0.15,-0.21 -0.195,-0.36 -0.03,0.075 -0.03,0.135 0,0.135 0.105,0.225 l 0.12,0 z m 6.63,-1.14 q 0,-0.18 -0.06,-0.66 -0.045,0.015 -0.15,0.06 -0.09,0.045 -0.135,0.045 -0.03,0 -0.075,-0.015 -0.045,0 -0.075,0 -0.375,0 -1.035,0.27 -0.09,0.975 -0.09,0.93 0.06,0.48 -0.075,1.62 -0.015,0.045 -0.06,0.225 -0.045,0.18 -0.03,0.255 0.015,0.345 -0.045,0.66 -0.045,0.165 -0.045,0.42 0,0.33 -0.21,0.33 -0.045,0 -0.06,-0.015 0,-0.015 -0.045,-0.015 -0.03,0 -0.375,0.165 -0.33,0.15 -0.36,0.15 -0.03,0 -0.09,-0.015 -0.045,-0.03 -0.075,-0.03 -0.03,0 -0.285,0.105 -0.255,0.105 -0.285,0.105 -0.12,0 -0.12,-0.345 0,-0.03 0.015,-0.15 0.015,-0.135 0.015,-0.18 -0.015,-0.315 0,-0.765 0.045,-0.51 0.135,-1.41 0,-0.09 0.03,-0.3 0.03,-0.21 0.03,-0.225 0,-0.06 -0.03,-0.15 -0.015,-0.105 -0.015,-0.15 0.015,-0.15 -0.06,-0.435 -0.09,-0.015 -0.435,0.105 -0.18,0.03 -0.48,0.12 -0.03,0.015 -0.42,0.36 -0.435,0.36 -0.435,0.465 0,0.03 0.015,0.195 0.015,0.165 0.015,0.225 0,0.06 0.045,0.42 0.03,0.24 0,0.435 -0.03,0.105 -0.015,0.375 0.15,0.105 0.15,0.165 0,0.03 -0.15,0.165 -0.015,0.105 -0.03,0.27 -0.045,1.125 0,1.755 0.015,0.165 -0.015,0.495 -0.045,0.375 -0.045,0.48 0,0.12 0.045,0.18 0.06,0.045 0.15,0.165 -0.075,0.105 -0.18,0.15 -0.045,0.18 -0.045,0.585 l -0.045,3.3 q 0.165,0 0.405,-0.18 0.21,-0.135 0.405,-0.285 0.21,-0.06 0.525,-0.255 0.09,-1.05 0.09,-1.275 0,-0.03 -0.03,-0.075 -0.015,-0.045 -0.015,-0.075 l 0,-1.545 q 0,-0.015 -0.015,-0.15 -0.015,-0.105 0,-0.165 0.015,-0.135 0.18,-0.315 0.165,-0.18 0.3,-0.225 0.375,-0.15 1.275,-0.33 0.015,0 0.06,-0.015 0.06,-0.03 0.09,-0.03 0.03,0 0.045,0.015 0.015,0.015 0.045,0.015 0.045,0 0.285,-0.09 0.03,0.075 0.15,0.18 0.12,0.105 0.12,0.135 0,0.03 -0.03,0.075 -0.015,0.045 -0.015,0.045 -0.105,0.6 -0.105,0.81 0,0.495 0.015,0.42 0,0.015 -0.045,0.09 -0.03,0.075 -0.03,0.105 0,0.03 0.015,0.255 0.03,0.21 0.03,0.285 0,0.075 -0.045,0.24 -0.045,0.165 -0.045,0.195 0,0.03 0.015,0.06 0.03,0.03 0.03,0.03 -0.045,0.39 0.045,0.48 l 0.105,0 q 0.135,0 0.57,-0.285 0.525,-0.315 0.645,-0.36 0.075,-0.18 0.06,-0.36 0,0.045 0.045,-0.705 0.03,-0.78 0,-0.96 -0.03,-0.21 -0.03,-0.285 0,-0.105 0.03,-0.42 0.045,-0.33 0.045,-0.345 l 0,-0.675 q 0,-0.495 0.09,-1.665 0.075,-0.39 0.15,-1.515 0.015,-0.315 0.045,-1.05 0.03,-0.69 0.03,-0.69 z m -5.64,2.43 q -0.165,-0.135 -0.42,-0.405 0.195,0.375 0.42,0.405 z m 3.675,3.975 q 0,-0.06 -0.03,-0.06 l -0.09,0 0,0.12 q 0.045,0.06 0.09,0.06 0,-0.015 0.015,-0.045 0.015,-0.03 0.015,-0.075 z m -4.785,-3.87 q -0.06,-0.06 -0.135,-0.15 0.06,0.18 0.135,0.15 z m 0,0.405 q -0.12,-0.165 -0.21,-0.195 0,0.09 0.015,0.18 0.015,0.075 0.015,0.075 0.06,-0.06 0.18,-0.06 z m -0.09,0.33 q -0.045,-0.21 -0.12,-0.24 0.015,0.09 0.12,0.24 z m 0.03,1.11 q 0,-0.105 -0.135,-0.105 0.105,0.105 0.135,0.105 z m 0.675,3.015 -0.03,-0.075 -0.045,0.015 0.03,0.06 0.045,0 z m 0.39,0.495 q -0.015,-0.06 -0.045,-0.135 -0.09,-0.09 -0.27,-0.24 l 0,0.105 q 0,0.045 0.105,0.195 0.12,0.15 0.135,0.195 0.03,0.03 0.03,0.165 l 0.045,-0.285 z m -0.06,0.81 q -0.15,-0.225 -0.255,-0.285 0.045,0.135 0.255,0.285 z m -0.03,0.51 q -0.255,-0.3 -0.735,-0.69 0.3,0.33 0.735,0.69 z m -0.015,0.885 q -0.15,-0.135 -0.21,-0.135 0.15,0.165 0.21,0.135 z"
         style="font-style:normal;font-variant:normal;font-weight:normal;font-stretch:normal;font-family:Refuse;-inkscape-font-specification:Refuse;fill:#000000;fill-opacity:1;stroke:none;stroke-opacity:1"
         id="path4153" />
      <path
         d="m 203.28977,411.20492 q 0,0.03 -0.075,0.21 -0.075,0.18 -0.09,0.255 -0.045,0.21 -0.015,0.435 0.045,0.465 -0.165,1.395 -0.015,0.135 -0.045,0.39 -0.03,0.075 -0.075,0.21 0,0.06 -0.195,0.78 -0.195,0.72 -0.24,1.095 0,0.24 -0.06,0.72 -0.075,0.285 -0.225,0.885 -0.03,0.285 -0.105,0.87 -0.09,0.33 -0.255,1.005 0,0.075 -0.015,0.24 0,0.075 -0.105,0.39 -0.15,0.54 -0.255,0.54 -0.075,0 -0.09,-0.015 l -1.485,0.525 q -0.06,0 -0.09,0 -0.15,-0.225 -0.33,-0.465 -0.18,-0.255 -0.33,-0.315 -0.21,-0.465 -0.525,-1.305 -0.03,-0.24 -0.225,-0.69 0,0 -0.045,0.06 -0.165,0.435 -0.72,2.415 -0.045,0.27 -0.195,0.945 -0.045,0.135 -0.24,0.57 -0.03,0.045 -0.33,0.135 -0.09,0.015 -0.3,0.09 -0.195,0.09 -0.225,0.09 -0.03,0 -0.03,-0.015 0,-0.015 -0.03,-0.015 -0.015,0 -0.06,0.03 -0.03,0.045 -0.06,0.045 -0.03,0 -0.03,-0.015 0,-0.015 -0.03,-0.015 -0.09,0 -0.435,0.075 -0.015,0 -0.075,0.03 -0.045,0.045 -0.075,0.045 -0.09,0 -0.225,-0.255 -0.015,-0.03 -0.21,-0.375 -0.09,-0.12 -0.36,-0.435 -0.075,-0.06 -0.225,-0.165 -0.135,-0.105 -0.225,-0.24 -0.09,-0.135 -0.225,-0.39 0,-0.06 -0.015,-0.15 -0.165,-0.42 -0.48,-1.23 -0.12,-0.225 -0.315,-0.66 -0.075,-0.24 -0.24,-0.705 -0.045,-0.075 -0.12,-0.225 -0.15,-0.42 -0.435,-1.275 -0.015,-0.12 -0.06,-0.33 -0.09,-0.3 -0.33,-0.915 -0.435,-0.96 -0.6,-1.545 -0.06,-0.09 -0.165,-0.3 -0.015,-0.03 -0.03,-0.18 0.015,-0.03 0.09,-0.06 0.06,-0.03 0.24,-0.09 0.555,-0.105 0.975,-0.18 0.015,0 0.21,-0.09 0.135,-0.06 0.195,-0.03 0.015,-0.03 0,-0.075 -0.03,-0.075 -0.03,-0.09 0,-0.09 0.15,-0.09 0.12,0 0.405,0.375 0.165,0.225 0.33,0.465 0.105,0.12 0.21,0.18 0.075,0 0.165,0.015 0.105,0.015 0.105,0.105 -0.015,0.09 0,0.165 0.045,0.06 0.09,0.18 0.015,0.045 0.36,1.08 0.06,0.075 0.135,0.195 0.09,0.255 0.255,0.735 0.03,0.03 0.075,0.075 0.075,0.15 0.09,0.285 0,0.015 0.03,0.06 0.09,-0.03 0.09,-0.12 0,-0.21 0,-0.18 0.015,-0.03 0.06,-0.075 0.015,-0.12 0.03,-0.3 0.045,-0.06 0.045,-0.09 l 0,-0.66 q 0,0.12 0.105,-0.405 0,-0.09 0.03,-0.27 0.03,-0.195 0.045,-0.51 0.09,-0.39 0.225,-1.11 0.03,-0.225 0.105,-0.66 0,-0.09 0.09,-0.24 0.105,-0.075 0.315,-0.21 0.195,-0.045 0.585,-0.15 0.165,-0.075 0.48,-0.195 0.105,-0.03 0.33,-0.03 0.06,0 0.345,0.405 0.285,0.405 0.42,0.405 0.03,0 0.09,0 0.06,-0.015 0.135,-0.015 0,0.255 0.09,0.735 0.03,0.03 0.075,0.105 0.18,0.48 0.57,1.515 0.015,0 0.045,-0.06 0.045,-0.165 0.075,-0.465 0.015,-0.39 0.09,-1.155 0.015,-0.06 -0.03,-0.195 0.045,-0.03 0.09,-0.09 0.045,-0.06 0.045,-0.165 0,-0.3 0.075,-0.72 0,-0.225 0.06,-0.645 0.03,-0.15 0.12,-0.345 0.165,0.045 0.21,0.03 -0.12,-0.165 -0.12,-0.165 0,-0.075 0.075,-0.135 0.33,-0.075 0.975,-0.345 0.09,0 0.24,-0.045 0.285,-0.21 0.45,-0.21 0.06,0 0.09,0 0.405,0.48 0.54,0.615 0.3,0.315 0.555,0.465 0.21,0.12 0.21,0.225 z m -0.765,-0.15 q -0.12,-0.105 -0.255,-0.255 -0.075,-0.165 -0.255,-0.465 -0.135,-0.18 -0.21,-0.18 -0.105,0 -0.15,0.045 -0.09,0.09 -0.165,0.135 0.075,0.075 0.225,0.24 0.105,0.165 0.225,0.315 0.21,0.285 0.345,0.285 0.15,0 0.24,-0.12 z m -0.54,0.18 q -0.18,-0.225 -0.36,-0.45 -0.3,-0.36 -0.375,-0.36 -0.03,0 -0.48,0.21 0.12,0.105 0.495,0.45 0.3,0.285 0.33,0.285 0.045,0 0.39,-0.135 z m -0.675,0.165 q 0,-0.015 -0.3,-0.39 -0.105,-0.075 -0.36,-0.255 0.345,0.615 0.615,0.705 l 0.045,-0.06 z m -0.72,-0.03 q -0.09,-0.24 -0.315,-0.51 0,0 -0.015,0.03 -0.015,0.03 -0.015,0.06 0,0.09 0.105,0.225 0.105,0.075 0.24,0.195 z m 0.495,0.39 q 0.045,-0.045 -0.03,-0.105 0,0.015 0.015,0.06 0.015,0.03 0.015,0.045 z m -0.045,0.15 -0.105,-0.12 -0.03,0.03 0.105,0.12 0.03,-0.03 z m -0.015,0.36 q 0.015,-0.045 -0.06,-0.135 -0.18,-0.285 -0.585,-0.84 -0.045,-0.06 -0.15,-0.09 -0.06,0.12 -0.06,0.12 0,0.09 0.03,0.135 0.18,0.18 0.495,0.51 0,0.015 0.015,0.06 0.165,0.135 0.285,0.285 0.015,-0.015 0.03,-0.045 z m -0.06,0.24 q -0.6,-0.735 -0.81,-0.93 l -0.03,0.135 q 0.255,0.165 0.465,0.465 0.165,0.24 0.33,0.48 0,0 0.015,-0.045 0.03,-0.045 0.03,-0.105 z m -0.06,0.39 q 0,0 -0.48,-0.705 -0.135,-0.195 -0.315,-0.33 -0.06,0.195 -0.06,0.27 0,0 0.42,0.435 0.15,0.21 0.42,0.45 0,-0.015 0,-0.045 0.015,-0.045 0.015,-0.075 z m -0.795,-0.42 0,-0.075 -0.045,0 0,0.075 0.045,0 z m 0.75,0.75 q 0,0 -0.195,-0.195 -0.18,-0.21 -0.495,-0.48 0.195,0.24 0.57,0.69 -0.015,0.03 -0.075,0.075 -0.075,0 -0.18,-0.12 -0.09,-0.135 -0.12,-0.15 0.09,0.165 0.375,0.57 0.12,-0.345 0.12,-0.39 z m -0.615,-0.315 q -0.105,-0.15 -0.21,-0.24 0,0.015 -0.015,0.03 -0.015,0 -0.015,0.03 0,0.03 0.24,0.18 z m 0.12,0.12 -0.105,-0.12 -0.03,0.015 0.105,0.12 0.03,-0.015 z m -0.33,-0.075 -0.06,-0.03 -0.015,0.03 0.06,0.03 0.015,-0.03 z m 0.015,0.33 q -0.105,-0.09 -0.135,-0.09 0.03,0.045 0.135,0.09 z m 0.645,0.465 q -0.12,0.09 -0.12,0.165 0,0.075 0.09,0.105 0,-0.045 0.015,-0.135 0.015,-0.09 0.015,-0.135 z m -0.6,-0.09 q -0.015,-0.075 -0.135,-0.165 0.03,0.15 0.135,0.165 z m 0.15,0.135 -0.105,-0.105 -0.015,0.03 0.105,0.09 0.015,-0.015 z m 0.375,0.405 q -0.18,-0.105 -0.21,-0.105 0.06,0.09 0.15,0.255 0.06,-0.06 0.06,-0.15 z m -0.255,0.12 q -0.165,-0.27 -0.495,-0.615 0,0.015 -0.015,0.06 -0.015,0.045 -0.015,0.075 0,0.015 0.525,0.48 z m -2.22,-1.935 q -0.075,-0.225 -0.48,-0.69 -0.075,0.015 -0.225,0.045 l 0,0.075 q 0.15,0.135 0.42,0.405 0.015,0.045 0.045,0.105 0.03,0.045 0.09,0.09 0.03,0 0.045,0 0.03,0 0.06,-0.015 0.045,-0.015 0.045,-0.015 z m 2.145,2.22 q -0.255,-0.39 -0.39,-0.465 l -0.06,0.015 q 0.15,0.165 0.45,0.45 z m 0.06,0.105 -0.03,-0.09 -0.03,0.015 0.015,0.075 0.045,0 z m 0.09,0.075 -0.03,-0.06 -0.03,0.015 0.03,0.045 0.03,0 z m -2.625,-2.265 0,-0.075 q -0.24,-0.24 -0.525,-0.645 l -0.105,0 q -0.135,0.03 -0.345,0.18 0.21,0.225 0.6,0.66 0.03,0.015 0.06,0.015 0.015,0 0.315,-0.135 z m 2.64,2.565 q -0.21,-0.195 -0.525,-0.615 -0.09,-0.045 -0.09,-0.045 -0.045,0.06 -0.045,0.12 0,0.09 0.27,0.33 0.135,0.135 0.36,0.345 0,0 0.015,-0.045 0.015,-0.045 0.015,-0.09 z m -0.405,0.03 q -0.03,-0.075 -0.18,-0.165 0.09,0.12 0.18,0.165 z m 0.33,0.39 q 0.03,-0.075 -0.06,-0.15 -0.09,-0.075 -0.165,-0.135 0.12,0.21 0.225,0.285 z m -3.165,-2.82 q 0,-0.015 -0.45,-0.48 -0.165,-0.18 -0.195,-0.18 -0.06,0 -0.21,0.06 0.12,0.09 0.33,0.27 0.12,0.15 0.375,0.42 l 0.105,0 q 0.045,-0.045 0.045,-0.09 z m 2.79,2.7 q 0,-0.105 -0.33,-0.36 0,0.03 -0.015,0.06 0.03,0 0.165,0.15 0.06,0.09 0.18,0.15 z m 0.33,0.645 q 0,-0.09 -0.585,-0.675 l 0,0.075 q 0,0.165 0.18,0.36 0.18,0.195 0.345,0.375 0.06,-0.12 0.06,-0.135 z m -3.24,-2.79 q -0.015,-0.015 -0.03,-0.045 l -0.075,0 q 0.045,0.105 0.09,0.105 0,-0.03 0.015,-0.06 z m -0.09,0.24 q -0.225,-0.36 -0.75,-0.93 -0.09,0.075 -0.09,0.105 0,0.03 0.315,0.39 0.375,0.435 0.495,0.6 0,0 0.015,-0.045 0.015,-0.06 0.015,-0.12 z m 3.285,2.88 q -0.06,-0.045 -0.09,-0.045 l -0.045,0.06 q 0.03,0.06 0.105,0.15 l 0.03,-0.165 z m -3.375,-2.49 0,-0.12 q 0,-0.03 -0.525,-0.6 -0.03,-0.075 -0.105,-0.195 -0.03,-0.045 -0.15,-0.09 l -0.03,0.105 q 0.135,0.12 0.345,0.315 0.075,0.105 0.24,0.345 0.015,0.045 0.045,0.135 0.03,0.075 0.18,0.105 z m -0.03,0.135 q -0.225,-0.105 -0.405,-0.39 -0.21,-0.345 -0.375,-0.465 -0.075,0.21 -0.075,0.225 0,0 0.78,0.9 0.075,-0.15 0.075,-0.27 z m -0.795,-0.33 q -0.045,0 -0.045,-0.045 0,0.045 0.045,0.045 z m 0.705,0.9 q 0,0.03 -0.045,-0.06 -0.285,-0.27 -0.81,-0.705 l 0,0.165 q 0,0.03 0.135,0.165 0.165,0.18 0.21,0.24 0.09,0.165 0.345,0.495 0.015,0 0.06,0 0.045,-0.015 0.045,-0.015 0.06,-0.24 0.06,-0.285 z m -0.135,0.435 q -0.015,0 -0.06,0.03 l 0.06,0.06 q 0.015,0 0.015,-0.045 0.015,-0.03 -0.015,-0.045 z m -0.015,0.315 q 0,-0.045 0,-0.075 -0.24,-0.18 -0.3,-0.255 -0.03,-0.03 -0.39,-0.555 -0.03,0 -0.06,-0.015 -0.03,0.03 -0.03,0.06 0,0.105 0.165,0.27 0.225,0.21 0.225,0.225 0.105,0.165 0.33,0.465 0.06,-0.03 0.06,-0.12 z m -0.045,0.375 -0.75,-0.975 q -0.015,0.06 -0.06,0.15 l 0.78,0.99 q 0,-0.105 0.03,-0.165 z m 6.36,-4.275 0,-0.135 -0.105,0 q -0.195,0.135 -0.69,0.255 -0.495,0.105 -0.63,0.18 -0.21,0.12 -0.255,0.33 -0.015,0.135 -0.015,0.285 -0.06,0.12 -0.105,0.285 -0.165,0.9 -0.39,1.92 0,0.09 -0.015,0.255 -0.09,0.375 -0.195,0.975 -0.015,0.195 0.015,0.42 -0.03,0.03 -0.06,0.09 -0.03,0.525 -0.06,1.425 0,0 -0.075,0.09 l -0.105,0 q -0.06,-0.075 -0.105,-0.3 -0.03,-0.15 -0.06,-0.3 -0.12,-0.315 -0.36,-0.9 -0.03,-0.18 -0.09,-0.465 -0.255,-0.675 -0.435,-1.23 -0.015,-0.15 -0.09,-0.405 -0.21,-0.615 -0.705,-1.59 -0.27,0 -0.345,0.03 -0.12,0.045 -0.39,0.195 -0.045,0.075 -0.135,0.165 -0.045,0.03 -0.195,0.015 -0.105,0.345 -0.24,0.84 -0.24,1.275 -0.36,2.13 -0.03,0.555 -0.12,1.455 -0.12,0.495 -0.165,1.005 -0.03,0.075 -0.06,0.195 -0.03,0.42 -0.12,1.155 -0.015,0.105 -0.09,0.18 l -0.075,0 q -0.015,-0.015 -0.06,-0.06 -0.09,-0.285 -0.225,-0.72 -0.03,-0.135 -0.09,-0.39 -0.165,-0.36 -0.465,-1.05 -0.105,-0.405 -0.33,-1.11 0,-0.015 -0.945,-2.385 -0.03,-0.075 -0.12,-0.105 -0.405,0.09 -1.17,0.33 -0.105,0.105 -0.345,0.3 0.015,0.09 0.105,0.345 0.165,0.42 0.435,1.215 0.045,0.165 0.105,0.435 0.105,0.18 0.255,0.495 0.255,0.765 0.78,2.265 0.12,0.255 0.36,0.78 0,0.045 0.015,0.105 0.105,0.285 0.285,0.795 0.15,0.36 0.24,0.51 0.135,0.27 0.345,0.495 0,0.045 0.045,0.135 0.12,0.12 0.42,0.12 0.525,0 0.945,-0.225 0.075,-0.03 0.18,-0.09 0.195,-0.375 0.36,-1.02 0,-0.12 0.03,-0.345 0.15,-0.555 0.405,-1.515 0.12,-0.255 0.285,-0.69 0.015,-0.15 0.075,-0.45 0.09,-0.18 0.18,-0.465 0.03,-0.165 0.09,-0.45 0,0.045 -0.03,-0.24 0,-0.165 0.135,-0.165 0.03,0 0.12,0.075 0.09,0.075 0.09,0.12 0.03,0.255 0.315,1.095 0.06,0.3 0.18,0.915 0.06,0.135 0.165,0.39 0.15,0.405 0.45,1.2 0.09,0.195 0.195,0.195 0.03,0 1.125,-0.375 0.105,-0.03 0.24,-0.105 0.09,-0.39 0.225,-1.005 0.09,-0.345 0.195,-0.885 0.045,-0.285 0.12,-0.795 0.09,-0.39 0.165,-0.78 0.12,-0.51 0.12,-0.885 0,-0.09 0.06,-0.27 0.06,-0.18 0.06,-0.195 0.075,-0.465 0.315,-1.185 -0.015,-0.06 -0.015,-0.165 0.045,-0.225 0.12,-0.63 0.06,-0.21 0.15,-0.72 0.015,-0.345 0.045,-0.945 0,-0.09 0.045,-0.255 0.045,-0.18 0.045,-0.195 z m -6.405,4.725 q 0,-0.06 -0.03,-0.105 -0.285,-0.345 -0.75,-0.99 -0.06,0.21 -0.06,0.24 0,0.105 0.015,0.12 0.705,0.75 0.705,0.75 0,0.03 -0.015,0.045 l -0.09,0 q -0.105,-0.09 -0.255,-0.225 -0.135,-0.15 -0.345,-0.375 l 0,0.15 q 0.525,0.48 0.735,0.9 0.09,-0.585 0.09,-0.51 z m -3.105,-2.52 q -0.18,-0.255 -0.18,-0.15 0,0.165 0.18,0.15 z m 0.27,0.3 q -0.015,-0.03 -0.06,-0.075 0,0 -0.03,0.015 -0.03,0 -0.06,0 -0.03,0 -0.225,-0.12 -0.18,-0.135 -0.195,-0.165 -0.015,-0.075 0.03,-0.255 -0.06,-0.135 -0.27,-0.285 0.045,0.06 0.045,0.105 0,0.075 -0.135,0.105 -0.18,0.06 -0.225,0.09 l 0,0.09 q 0.3,0.3 0.66,0.69 0.075,-0.03 0.225,-0.075 0.105,-0.03 0.24,-0.12 z m 2.745,2.745 q 0,0.045 -0.045,0.045 -0.075,0 -0.195,-0.18 -0.075,-0.09 -0.135,-0.195 -0.27,-0.315 -0.39,-0.42 -0.045,0.105 -0.045,0.15 0,0.135 0.105,0.21 0.24,0.27 0.69,0.735 0.03,-0.135 0.015,-0.345 z m -0.03,0.66 q 0,-0.075 -0.03,-0.12 -0.165,-0.21 -0.33,-0.435 -0.21,-0.27 -0.435,-0.42 -0.06,0.15 -0.06,0.135 0,0.105 0.075,0.21 0.435,0.51 0.525,0.51 0.03,0 0.03,-0.015 -0.015,0 0.015,0 0.045,0 0.09,0.09 0.06,0.075 0.09,0.09 0,-0.015 0.03,-0.045 z m -3.39,-3.15 0,-0.075 q -0.3,-0.255 -0.42,-0.45 -0.045,-0.105 -0.18,-0.315 -0.045,0 -0.135,0 -0.225,0 -0.54,0.24 0.015,0.3 0.66,0.72 0.015,-0.06 -0.135,-0.225 -0.21,-0.21 -0.21,-0.225 -0.135,-0.18 -0.135,-0.255 0,-0.045 0.12,-0.045 0.09,0 0.15,0.06 -0.03,0.075 -0.015,0.105 0.36,0.54 0.525,0.54 -0.09,0 0.315,-0.075 z m 3.315,3.465 q 0,-0.09 -0.045,-0.135 -0.27,-0.24 -0.75,-0.66 -0.045,0.045 -0.105,0.12 0.27,0.315 0.84,0.84 0.06,-0.105 0.06,-0.165 z m -0.09,0.525 0,-0.18 q -0.27,-0.315 -0.885,-0.87 0.06,0.24 0.06,0.345 0.075,0.075 0.705,0.705 l 0.12,0 z m -0.48,-0.135 -0.03,-0.03 -0.015,0.015 0.03,0.03 0.015,-0.015 z m 0.45,0.3 q -0.075,-0.03 -0.195,-0.09 -0.105,-0.075 -0.255,-0.18 0.27,0.3 0.42,0.39 0,-0.015 0.015,-0.045 0.015,-0.045 0.015,-0.075 z m -0.045,0.39 q 0,-0.045 -0.3,-0.315 l 0,0.135 q -0.015,0.165 0.24,0.3 0.06,-0.15 0.06,-0.12 z m -0.075,0.18 q -0.06,0 -0.06,0.045 0,0.075 0.06,0.165 0.045,-0.09 0,-0.21 z"
         style="font-style:normal;font-variant:normal;font-weight:normal;font-stretch:normal;font-family:Refuse;-inkscape-font-specification:Refuse;fill:#000000;fill-opacity:1;stroke:none;stroke-opacity:1"
         id="path4155" />
      <path
         d="m 211.41883,420.74492 q -0.045,0.06 -0.135,0.165 -0.435,0.285 -1.335,0.78 -0.135,0.015 -0.345,0.075 -0.63,0.36 -0.945,0.495 -0.18,0.12 -0.6,0.33 -0.075,0 -0.18,0.015 -0.48,0.24 -0.945,0.48 -0.6,0.3 -0.885,0.27 -0.09,-0.075 -0.285,-0.24 -0.075,-0.09 -0.195,-0.255 -0.165,-0.135 -0.465,-0.375 -0.21,-0.225 -0.69,-0.645 -0.12,-0.045 -0.255,-0.18 -0.09,-0.255 -0.09,-0.57 l 0.105,-3.285 q -0.045,-0.09 -0.105,-0.24 0.03,-0.06 0.105,-0.075 0.06,-0.03 0.06,-0.12 0,-0.09 -0.15,-0.225 -0.09,-0.105 -0.195,-0.21 l 0,-0.09 q 0.045,-0.045 0.375,0 0.045,-0.165 0.045,-0.33 0,-0.15 -0.135,-0.42 0.135,-0.06 0.15,-0.18 0.045,-0.63 0.21,-2.025 0,-0.225 0.015,-0.66 0.06,-0.225 0.15,-0.675 0.015,-0.42 -0.015,-0.75 0.105,0 0.18,0.015 0.075,0 0.09,0 -0.03,0 0.225,-0.06 0.255,-0.06 0.765,-0.225 0.105,-0.075 0.315,-0.195 0.135,-0.045 0.39,-0.12 0.015,0 0.06,-0.045 0.045,-0.06 0.075,-0.06 0.045,0 0.06,0.03 0.015,0.03 0.045,0.03 -0.09,0 0.69,-0.36 1.095,-0.51 1.725,-0.6 0.03,0 0.135,-0.03 0.105,-0.045 0.15,-0.045 0.075,0 0.15,0.105 0.09,0.105 0.105,0.105 0.255,0.24 0.795,0.66 0.06,0.045 0.54,0.105 -0.015,0.21 -0.015,0.465 0.105,1.08 0.105,1.335 0,0.255 -0.42,0.45 -0.225,0.075 -0.45,0.15 -0.3,0.135 -1.08,0.555 -0.255,0.06 -0.735,0.24 -0.435,0.24 -0.525,0.33 -0.075,0.09 -0.075,0.345 0,0.12 0.09,0.12 0.105,0 0.54,-0.21 0.45,-0.225 0.69,-0.225 0.135,0 0.435,0.21 0.075,0.135 0.24,0.345 0.075,0.06 0.465,0.345 0.03,0.105 0.075,0.315 0.09,0.855 0.09,1.125 0,0.225 -0.09,0.345 -0.015,0.015 -0.27,0.24 0.06,0.045 0.165,0.15 0.015,0.06 0.075,0.18 0.15,0.195 0.72,0.66 0.045,0.12 0.135,0.345 0.09,0.36 0.075,0.675 l 0,1.14 z m -0.99,-9.405 -0.96,-0.885 -0.165,0 q -0.03,0.045 -0.03,0.075 0,0.075 0.195,0.27 0.105,0.105 0.195,0.21 0.09,0.09 0.21,0.285 l -0.03,0.015 q -0.345,-0.285 -0.72,-0.66 -0.09,-0.09 -0.06,-0.165 -0.105,0.015 -0.27,0.06 0.465,0.375 0.675,0.615 0.45,0.51 0.45,0.51 0.105,0 0.51,-0.33 z m -0.66,0.36 q -0.27,-0.315 -0.84,-0.915 -0.075,-0.045 -0.135,-0.09 -0.06,-0.045 -0.045,-0.12 -0.33,0.12 -0.63,0.285 0,0.12 0.06,0.195 0.195,0.18 0.495,0.465 0.06,0.03 0.135,0.075 0.48,0.42 0.48,0.42 -0.045,0 0.45,-0.225 0.03,-0.015 0.03,-0.09 z m -0.63,0.375 q -0.315,-0.255 -0.615,-0.525 -0.345,-0.3 -0.495,-0.555 -0.045,-0.06 -0.105,-0.06 -0.105,0 -0.3,0.135 0,0.18 0.45,0.585 0.39,0.345 0.39,0.39 0,0.06 -0.03,0.045 -0.405,-0.24 -0.51,-0.315 -0.105,-0.09 -0.285,-0.345 -0.18,-0.255 -0.21,-0.255 -0.03,0 -0.18,0.075 -0.15,0.075 -0.195,0.09 -0.045,0.015 -0.045,0.09 0.12,0.135 0.33,0.36 0.105,0.06 0.27,0.195 0.225,0.285 0.225,0.405 0,0.03 -0.06,0.06 -0.09,-0.15 -0.3,-0.405 -0.315,-0.285 -0.645,-0.585 -0.045,0 -0.255,0.03 -0.135,0.03 -0.165,0.12 0.24,0.3 0.69,0.87 0.15,0.195 0.15,0.21 0,0.045 -0.015,0.06 0,0.015 0,0.03 -0.12,-0.03 -0.165,-0.135 -0.165,-0.315 -0.63,-0.84 -0.15,-0.165 -0.165,-0.165 -0.12,0 -0.39,0.165 l 0,0.12 q 0.66,0.825 0.66,0.825 0,0.03 -0.015,0.06 -0.015,0.015 -0.015,0.015 l -0.06,0 q -0.645,-0.915 -0.81,-0.915 -0.33,0 -0.465,0.165 0.06,0.075 0.57,0.435 0.36,0.285 0.54,0.57 0.09,0.15 0.165,0.21 0.21,-0.135 0.66,-0.27 0.6,-0.195 0.6,-0.21 0.495,-0.255 1.425,-0.735 z m 1.02,3.615 q -0.075,-0.03 -0.465,-0.405 -0.33,-0.3 -0.51,-0.3 -0.135,0 -0.3,0.075 l 0,0.105 q 0,0.09 0.165,0.21 0.09,0.075 0.195,0.15 0.135,0.18 0.33,0.48 0.45,-0.06 0.585,-0.315 z m -0.765,0.42 q 0.045,-0.135 -0.735,-0.945 -0.045,0 -0.18,0.09 -0.135,0.09 -0.18,0.105 0.045,0.105 0.375,0.525 0.33,0.405 0.39,0.405 0.075,0 0.33,-0.18 z m -3.21,-2.46 -0.09,-0.09 -0.03,0.015 0.09,0.09 0.03,-0.015 z m 2.67,2.685 q -0.105,-0.12 -0.285,-0.33 -0.12,-0.165 -0.225,-0.33 -0.165,-0.24 -0.27,-0.255 l -0.06,0.075 q 0,0.03 0.03,0.12 0.03,0.09 0.03,0.135 0,0.21 0.03,0.255 0.375,0.465 0.495,0.465 0.12,0 0.255,-0.135 z m -2.715,-2.43 -0.15,0 q 0.06,0.12 0.12,0.15 0,-0.03 0.015,-0.075 0.015,-0.06 0.015,-0.075 z m 4.845,4.86 q -0.27,-0.195 -0.765,-0.525 0.51,0.735 0.555,0.735 0.165,0 0.21,-0.21 z m -2.58,-2.22 q -0.06,-0.09 -0.3,-0.33 0,0.045 -0.03,0.12 -0.03,0.075 -0.03,0.105 l 0,0.24 q 0.24,-0.045 0.36,-0.135 z m -3.465,-3.315 q -0.03,-0.015 -0.03,-0.06 -0.03,0 0,0.03 0.015,0.03 0.03,0.03 z m 1.185,1.56 0,-0.09 -0.045,0 0,0.09 0.045,0 z m 4.875,-1.935 q 0,-0.525 -0.105,-1.32 l -0.09,0 q -0.165,0.06 -1.395,0.69 -0.045,0.045 -0.15,0.12 -0.3,0.12 -0.84,0.39 -0.165,0.105 -0.42,0.24 -0.465,0.15 -1.155,0.405 -0.345,0.165 -0.45,0.525 0,0.24 0,0.66 -0.015,0.15 0.03,1.02 0,0.03 -0.015,0.105 -0.015,0.06 -0.045,0.21 -0.015,0.15 -0.015,0.18 0,0.075 0.09,0.15 -0.03,0.03 -0.075,0.09 0,0.36 -0.015,0.96 -0.03,0.225 -0.045,0.42 0,0.09 -0.045,0.375 -0.03,0.27 -0.03,0.285 0,0.195 0.03,0.465 0,0.03 0.03,0.09 0.045,0.045 0.045,0.075 0,0.03 -0.045,0.075 -0.045,0.03 -0.045,0.06 l 0,0.75 q 0,0.3 0.015,0.24 -0.06,0.6 -0.06,0.45 l 0,1.965 q 0,-0.015 0.09,0.48 l 0.09,0 q 0.15,-0.045 0.39,-0.135 0.33,-0.165 0.87,-0.435 0.21,-0.06 0.57,-0.195 0.09,-0.06 0.21,-0.135 0.27,-0.105 0.795,-0.36 0.12,-0.105 0.315,-0.225 0.075,-0.015 1.23,-0.6 0.075,-0.03 0.18,-0.18 0.015,-0.345 0.045,-0.735 0.015,-0.345 0.015,-0.345 l 0,-0.45 -0.09,0 q -0.03,0.075 -0.105,0.195 -0.15,-0.045 -0.12,-0.045 0.03,0 -0.51,0.315 -0.33,0.135 -0.915,0.405 -0.315,0.18 -0.93,0.42 -0.03,0.03 -0.105,0.09 -0.33,0.09 -0.375,0.09 -0.18,0 -0.18,-0.15 0,-0.03 0.15,-0.15 0.165,-0.135 0.165,-0.165 0,0.015 -0.255,-0.405 l -0.03,0.375 q 0.03,0.045 0.015,0.075 -0.195,0.105 -0.15,0.105 -0.045,0 -0.135,-0.105 l 0,-1.14 q 0.12,-0.12 0.12,-0.165 0,-0.06 0,-0.15 0.21,-0.3 0.435,-0.435 0.675,-0.435 2.175,-1.095 0.195,-0.075 0.195,-0.45 0,-0.03 -0.06,-0.36 -0.045,-0.33 -0.06,-0.465 -0.06,-0.015 -0.18,0.09 -0.12,0.09 -0.12,0.09 -0.45,0.18 -1.23,0.51 -0.285,0.165 -0.87,0.495 -0.105,-0.045 -0.105,-0.39 0,-0.225 0,-0.255 0,-0.03 0.03,-0.075 0.03,-0.06 0.03,-0.09 0,-0.63 -0.03,-0.735 0,-0.03 -0.045,-0.075 -0.045,-0.06 -0.045,-0.075 0,-0.99 0.315,-1.14 0.255,-0.135 0.81,-0.39 0.27,-0.09 0.81,-0.375 0.24,-0.105 0.69,-0.315 0.06,-0.03 0.63,-0.27 0.075,-0.045 0.075,-0.15 z m -0.435,6.21 q -0.09,-0.165 -0.33,-0.48 -0.225,-0.33 -0.285,-0.33 0.06,0 -0.465,0.15 -0.03,0.015 -0.03,0.09 0.225,0.285 0.66,0.84 0.075,0.015 0.255,-0.105 0.09,-0.09 0.195,-0.165 z m -0.42,-1.185 q -0.015,-0.075 -0.06,-0.225 l -0.09,0 q -0.045,0 -0.075,0.06 -0.03,0.045 -0.03,0.045 -0.93,0.345 -1.89,0.9 -0.06,0.045 -0.12,0.15 l 0.09,0 q 0.39,-0.195 1.185,-0.6 0.12,-0.015 0.33,-0.075 0.21,-0.075 0.66,-0.255 z m -5.355,-3.435 -0.03,-0.075 -0.045,0.015 0.03,0.06 0.045,0 z m 5.25,4.995 q -0.045,-0.045 -0.78,-0.945 -0.27,-0.015 -0.57,0.3 0.12,0.135 0.45,0.57 0.255,0.345 0.285,0.345 -0.06,0 0.615,-0.27 z m -0.795,0.3 q -0.675,-0.87 -0.735,-0.87 -0.09,0 -0.285,0.105 -0.195,0.09 -0.24,0.135 -0.015,0.09 0.285,0.435 0.45,0.495 0.45,0.495 0.21,-0.06 0.525,-0.3 z m -4.5,-4.095 0,-0.045 q -0.015,-0.06 -0.15,-0.12 0.045,0.135 0.15,0.165 z m 1.23,1.2 q -0.06,0 -0.06,0.06 0,0.045 0.015,0.075 0.015,0.015 0.015,0.015 0.12,-0.06 0.03,-0.15 z m 0.06,0.705 q 0,-0.075 -0.03,-0.075 -0.015,0 0,0.03 0.015,0.045 0.03,0.045 z m 1.875,1.89 q -0.06,-0.15 -0.09,-0.24 -0.06,0.12 -0.075,0.18 0.12,0.06 0.165,0.06 z m 0.6,0.705 0,-0.09 q -0.105,-0.12 -0.54,-0.555 0,0.015 -0.015,0.06 -0.015,0.045 -0.015,0.075 0,0.09 0.105,0.345 0.105,0.255 0.21,0.255 -0.03,0 0.255,-0.09 z m -2.925,-2.325 q -0.09,-0.135 -0.36,-0.345 0.12,0.135 0.36,0.345 z m 0.225,0.195 q -0.075,-0.075 -0.21,-0.165 0.06,0.075 0.135,0.195 0.015,0 0.075,-0.03 z m -0.06,0.84 q -0.06,-0.135 -0.69,-0.69 -0.075,-0.03 -0.225,-0.105 0.315,0.315 0.915,0.795 z m 0.24,1.53 q -0.03,-0.09 -0.03,-0.225 -0.075,0.06 -0.18,0.06 0.135,0.135 0.21,0.165 z m -0.915,-0.81 -0.075,-0.03 -0.015,0.03 0.075,0.03 0.015,-0.03 z m -0.075,-0.045 -0.09,-0.09 -0.03,0.03 0.09,0.09 0.03,-0.03 z m -0.105,-0.105 -0.18,-0.12 -0.015,0.03 0.165,0.12 0.03,-0.03 z m -0.21,-0.135 -0.105,-0.045 0,0.045 0.09,0.03 0.015,-0.03 z m -0.165,0.48 0,-0.045 -0.105,0 0,0.045 0.105,0 z m -0.03,0.555 q -0.06,-0.06 -0.105,0 l 0.105,0 z m 1.425,2.055 0,-0.12 -0.045,0 0,0.12 0.045,0 z"
         style="font-style:normal;font-variant:normal;font-weight:normal;font-stretch:normal;font-family:Refuse;-inkscape-font-specification:Refuse;fill:#000000;fill-opacity:1;stroke:none;stroke-opacity:1"
         id="path4157" />
      <path
         d="m 220.00633,421.04492 q 0,0.195 -0.18,0.24 -0.255,0.075 -0.705,0.195 -0.06,0.015 -0.27,0.12 -0.195,0.105 -0.24,0.105 -0.045,0 -0.18,0.015 -0.135,0.015 -0.18,0.015 -0.03,0 -0.09,-0.045 -0.06,-0.045 -0.09,-0.045 -0.03,0 -0.045,0.015 0,0.015 -0.045,0.015 -0.105,0 -0.18,-0.105 -0.135,-0.15 -0.18,-0.18 -0.165,-0.12 -0.48,-0.315 -0.24,-0.105 -0.63,-0.42 0,-0.045 -0.015,-0.12 -0.06,-0.03 -0.165,-0.12 -0.03,-0.09 -0.105,-0.27 -0.165,0.18 -0.165,1.275 l 0,0.735 q 0,0.3 -0.015,0.45 -0.03,0.03 -0.075,0.09 -0.03,0.375 -0.03,0.27 -0.21,0.06 -0.195,0.06 -0.045,0 -0.105,-0.045 -0.06,-0.045 -0.09,-0.045 -0.045,0 -0.135,0.045 -0.075,0.06 -0.12,0.06 -0.21,0.06 -0.615,0.195 -0.465,0.225 -0.45,0.225 -0.075,0 -0.315,-0.15 -0.225,-0.135 -0.27,-0.225 -0.045,-0.09 -0.15,-0.255 -0.09,-0.165 -0.345,-0.45 -0.195,-0.105 -0.39,-0.225 -0.255,-0.165 -0.285,-0.33 0.015,-0.405 -0.015,-1.26 0,-0.03 -0.045,-0.195 -0.03,-0.12 -0.03,-0.18 0.09,-0.045 0.09,-0.09 0,-0.015 -0.045,-0.03 -0.045,-0.015 -0.045,-0.06 0,-0.03 0.03,-0.045 0.015,-0.015 0.015,-0.03 -0.015,-0.03 -0.045,-0.09 -0.015,-0.06 0,-0.12 0.03,-0.045 0.075,-0.12 0,-0.045 -0.015,-0.15 -0.03,-0.105 -0.03,-0.165 0,-0.03 0.06,-0.12 0.06,-0.09 0.06,-0.135 l -0.18,-2.76 0,-1.56 q 0,-0.03 0.045,-0.18 0.03,-0.15 0.03,-0.225 0,-0.09 0.03,-0.555 0.015,-0.375 0.12,-1.2 -0.03,-0.045 -0.075,-0.12 0,-0.03 0,-0.06 0.045,-0.045 0.105,-0.12 0.015,-0.06 0.045,-0.96 0.03,-0.57 0.21,-0.825 0.525,-0.18 1.56,-0.465 0.75,-0.15 1.365,-0.15 0.03,0 0.135,0.03 0.12,0.03 0.18,0.015 0.57,-0.015 1.47,0.6 0.06,0.105 0.21,0.24 0.135,0.06 0.42,0.195 0.12,0.135 0.39,0.39 0.15,0.135 0.375,0.435 0.105,0.195 0.27,0.585 0.135,0.45 0.135,1.23 0,0.42 -0.135,0.705 -0.12,0.36 -0.42,1.02 -0.285,0.36 -0.78,1.035 0.015,-0.09 0.015,0.12 -0.03,0.015 -0.27,0.06 -0.12,0.03 -0.12,0.135 0,0.195 0.285,0.795 0.045,0.06 0.105,0.18 0.075,0.12 0.36,0.735 0.15,0.315 0.36,0.66 0.12,0.21 0.33,0.615 0.075,0.06 0.195,0.195 0.705,1.215 0.705,1.215 z m -3.39,-10.41 0,-0.105 q -0.195,-0.315 -0.375,-0.3 -0.165,0 -0.48,-0.03 l -0.03,0.105 q 0.075,0.03 0.315,0.225 0.24,0.195 0.315,0.195 0.12,0 0.255,-0.09 z m -0.645,0.135 q -0.075,-0.09 -0.315,-0.3 -0.285,-0.24 -0.405,-0.24 -0.39,0 -0.54,0.105 0.225,0.18 0.69,0.51 -0.03,0.03 -0.03,0.105 l 0.135,0 q 0.15,0 0.465,-0.18 z m -0.78,0.195 q -0.105,-0.06 -0.27,-0.165 -0.06,-0.03 -0.255,-0.255 -0.165,-0.165 -0.21,-0.165 -0.33,0 -0.555,0.3 0.015,0.045 0.075,0.12 0.525,0.435 0.57,0.435 -0.015,0 0.645,-0.27 z m -0.87,0.525 q -0.015,-0.195 -0.3,-0.39 -0.27,-0.195 -0.3,-0.345 -0.045,0 -0.105,0.015 -0.045,0.015 -0.06,0.015 0.495,0.585 0.765,0.705 z m -0.645,0.03 -0.03,-0.105 -0.045,0.015 0.03,0.09 0.045,0 z m -0.54,-0.495 -0.045,-0.015 -0.03,0.075 0.045,0.015 0.03,-0.075 z m 0.93,1.98 -0.045,0 -0.045,0.225 0.06,0 0.03,-0.225 z m 5.49,7.995 0,-0.12 q 0,-0.045 -0.09,-0.135 -0.075,-0.09 -0.09,-0.105 -0.255,-0.48 -0.51,-0.81 -0.135,-0.285 -0.435,-0.855 -0.015,-0.045 -0.12,-0.12 -0.09,-0.075 -0.06,-0.105 0.03,-0.045 -0.48,-0.945 -0.525,-0.96 -0.525,-1.26 0,-0.135 0.135,-0.18 0.225,-0.105 0.255,-0.12 0.3,-0.24 0.66,-0.705 0.315,-0.42 0.405,-0.645 0,-0.06 0.015,-0.15 0.36,-0.645 0.36,-1.245 0,-0.45 -0.105,-0.945 -0.06,-0.345 -0.345,-0.75 -0.27,-0.42 -0.6,-0.645 -0.21,-0.06 -0.51,-0.15 -0.495,-0.18 -0.54,-0.18 -0.03,0 -0.09,0.045 -0.045,0.03 -0.075,0.045 -0.3,0.03 -0.78,0.135 -0.315,0.09 -0.66,0.195 -0.345,0.105 -0.57,0.27 -0.33,0.255 -0.315,0.48 0,0.06 0.015,0.21 0.03,0.15 0.015,0.225 -0.06,0.66 -0.06,0.555 l 0,0.855 q 0,0.045 -0.045,0.165 -0.03,0.12 -0.03,0.15 0,0.045 0.03,0.105 0.03,0.045 0.03,0.075 0,0.06 -0.015,0.165 -0.015,0.105 0,0.15 0,0.105 0.03,0.405 0.045,0.285 0.045,0.315 l 0,1.695 q 0,-0.045 -0.015,0.39 -0.015,0.36 0,0.54 0,0.075 0.03,0.285 0.045,0.195 0.045,0.21 l -0.18,3.45 q -0.03,0.915 0.015,1.08 0.06,-0.015 0.18,-0.06 0.135,-0.03 0.33,-0.135 0.195,-0.045 0.51,-0.165 0.075,-0.045 0.12,-0.105 0.075,-1.14 0.255,-3.345 0.06,-0.48 0.045,-0.675 -0.015,-0.24 -0.045,-0.705 0.18,-0.09 0.135,-0.09 0.195,0 0.27,0.06 0.015,0.12 0.075,0.315 0.465,0.78 1.335,2.31 0.15,0.345 0.51,0.885 0.12,0.09 0.39,0.09 0.105,0 1.05,-0.405 z m -5.535,-5.715 q -0.105,-0.075 -0.255,-0.18 0.03,0.165 0.225,0.255 0,-0.03 0.03,-0.075 z m -1.14,-0.855 0,-0.105 q -0.09,-0.09 -0.165,-0.09 0,0.015 -0.015,0.075 -0.015,0.045 -0.015,0.06 0.06,0.06 0.195,0.06 z m 1.2,1.725 q -0.135,-0.135 -0.375,-0.39 0.075,0.12 0.18,0.27 0.105,0.15 0.195,0.12 z m -0.9,-0.72 q -0.15,-0.495 -0.495,-0.645 l -0.03,0.21 q 0.195,0.165 0.525,0.435 z m -0.285,0.375 q -0.135,-0.12 -0.21,-0.165 0.075,0.18 0.21,0.165 z m -0.105,0.465 q 0,-0.045 -0.09,-0.135 -0.015,0.015 -0.015,0.135 l 0.105,0 z m 0.09,0.87 q -0.06,-0.12 -0.135,-0.105 0,0.015 0.015,0.06 0.015,0.03 0.015,0.045 l 0.105,0 z m 0.03,1.14 -0.075,-0.075 q 0,0.075 0.075,0.075 z m 1.125,1.5 q 0,-0.06 -0.06,-0.06 0.06,0 0.06,0.06 z m -1.005,-0.36 q -0.075,-0.165 -0.195,-0.195 0.045,0.105 0.195,0.195 z m 0.99,1.68 q -0.18,-0.135 -0.495,-0.375 0.255,0.435 0.465,0.54 0,-0.015 0.015,-0.06 0.015,-0.06 0.015,-0.105 z m -0.99,0.09 q -0.12,-0.18 -0.195,-0.24 l 0,0.105 q 0.135,0.135 0.195,0.135 z m 4.635,-7.665 q 0,0.39 -0.165,0.84 -0.09,0.12 -0.27,0.405 -0.015,0.03 0.075,0.3 -0.045,-0.015 -0.135,-0.09 -0.075,-0.09 -0.12,-0.09 -0.03,0 -0.435,0.21 -0.39,0.195 -0.42,0.195 -0.09,0 -0.195,-0.09 -0.09,-0.09 -0.075,-0.21 0.06,-0.57 0.015,-1.095 -0.06,-0.555 -0.12,-1.11 0.225,-0.165 0.42,-0.45 0.12,-0.045 0.12,-0.045 0.255,0 0.915,0.465 0.075,0.015 0.165,0.09 0.225,0.375 0.225,0.675 z m -0.87,0.435 q -0.09,-0.105 -0.285,-0.27 l 0,0.135 q 0.105,0.045 0.285,0.135 z m 0.21,0.285 q -0.06,-0.06 -0.195,-0.06 0.075,0.165 0.165,0.165 0.03,-0.045 0.03,-0.105 z m -0.18,0.285 q -0.045,-0.09 -0.15,-0.09 -0.03,0 -0.15,0.015 -0.12,0.015 -0.165,0.015 l 0,0.15 q 0,0.03 0.06,0.105 0.24,-0.06 0.405,-0.195 z"
         style="font-style:normal;font-variant:normal;font-weight:normal;font-stretch:normal;font-family:Refuse;-inkscape-font-specification:Refuse;fill:#000000;fill-opacity:1;stroke:none;stroke-opacity:1"
         id="path4159" />
      <path
         d="m 228.05734,411.03992 q 0,0.21 -0.27,0.765 -0.465,0.87 -1.41,2.64 0,0.06 -0.03,0.18 -0.465,0.9 -0.765,1.845 -0.12,0.36 -0.12,0.3 0,0.045 0.105,0.15 0.105,0.09 0.15,0.09 0.03,0 0.09,-0.075 0.06,-0.075 0.105,-0.09 l 0.06,0.06 q -0.21,0.195 -0.21,0.3 0,-0.045 0.465,0.585 0.315,0.36 0.795,0.945 0.075,0.045 0.18,0.165 0.81,1.305 0.81,1.365 0,0.105 -0.09,0.18 -0.135,-0.03 -0.315,-0.3 -0.12,-0.225 -0.255,-0.435 -0.135,-0.21 -0.42,-0.645 -0.24,-0.27 -0.675,-0.75 -0.24,-0.315 -0.885,-1.065 -0.315,-0.345 -0.315,-0.525 0,-0.03 0.15,-0.3 0.165,-0.285 0.225,-0.39 0.285,-0.705 0.93,-2.1 l 1.395,-2.805 q -0.015,-0.015 -0.06,-0.015 0.12,0 -0.36,0.165 -0.33,0.12 -0.66,0.24 -0.33,0.12 -0.555,0.375 -0.12,0.27 -0.39,0.84 -0.51,1.08 -0.81,2.025 -0.165,0.51 -0.42,0.945 -0.075,0.06 -0.18,0.195 -0.03,0.06 -0.045,0.135 0.03,0.135 0.03,0.135 -0.075,0.075 -0.15,0.075 -0.15,0 -0.165,-0.135 0,-0.015 0.03,-0.405 -0.015,-0.165 -0.015,-0.495 0,-0.015 0.03,-0.09 0.03,-0.075 0.015,-0.12 -0.06,-0.735 -0.075,-0.63 0.03,-0.435 0.03,-0.585 0,0.045 0.015,-0.195 0.03,-0.195 0,-0.315 -0.03,-0.18 -0.135,-0.18 -0.105,0 -0.465,0.225 -0.075,0.09 -0.24,0.21 -0.09,0.06 -0.555,0.24 0.06,0.09 0.06,0.18 0,0.18 -0.045,0.3 -0.06,0.21 -0.06,0.21 l 0,0.615 q 0,0.135 -0.015,0.42 -0.015,0.285 -0.015,0.285 0,0 0.03,0.6 0.045,0.6 0.06,0.915 0.015,0.93 -0.015,2.1 0,0.015 -0.03,0.09 -0.015,0.075 -0.015,0.105 l 0,1.785 q 0,0.435 0.12,0.585 0,0.015 -0.045,0.06 -0.03,0.06 -0.03,0.09 0,0 0.03,0.285 0.03,0.285 0.03,0.435 0,0 0.03,0.03 0.525,-0.075 0.795,-0.195 0.135,-0.09 0.39,-0.255 0.015,-0.15 0.015,-0.675 0,-0.075 0.03,-0.255 0.03,-0.18 0.03,-0.195 l 0,-1.26 q 0,0 0.015,-0.21 0.03,-0.225 0.015,-0.345 0,-0.555 0.045,-0.855 0.015,-0.135 0.015,-0.285 0.045,-0.225 0.15,-0.225 0.105,0 0.54,0.585 0.36,0.495 0.525,0.795 0.12,0.15 0.375,0.465 0.12,0.24 0.375,0.69 0.12,0.135 0.33,0.42 0.105,-0.03 0.3,-0.06 0.075,-0.045 0.18,-0.09 0.12,-0.045 0.36,-0.135 0.105,-0.075 0.225,-0.165 0.21,-0.165 0.27,-0.165 0.03,0 0.075,0.015 0.06,0.015 0.06,0.03 0.015,0 0.03,0.015 0.015,0 0.015,0.045 0,0.135 -0.225,0.165 -0.165,0.21 -0.315,0.285 -0.735,0.36 -1.005,0.36 -0.105,0 -0.45,-0.33 -0.195,-0.195 -0.39,-0.375 -0.12,-0.06 -0.315,-0.195 -0.645,-0.555 -0.75,-0.795 -0.015,-0.06 -0.135,-0.18 -0.015,0.015 -0.03,0.075 -0.015,0.06 -0.045,0.225 -0.015,0.15 -0.015,0.21 0,0.06 0.015,0.195 0.015,0.12 0.015,0.15 l 0,0.72 q 0,0.03 -0.045,0.21 -0.03,0.165 -0.03,0.195 l 0,0.72 q 0,0.3 -0.06,0.39 -0.105,0.18 -0.525,0.345 -0.03,0.015 -0.84,0.465 -0.06,0.03 -0.195,0.03 -0.075,-0.03 -0.09,-0.12 0,-0.135 0,-0.15 -0.06,-0.03 -0.195,-0.09 -0.075,-0.06 -0.66,-0.57 -0.24,-0.15 -0.615,-0.42 -0.06,-0.06 -0.06,-0.69 0,0 -0.015,-0.045 -0.03,-0.045 -0.03,-0.075 l 0.18,-2.265 0.09,-2.415 -0.225,-2.265 q 0,-0.42 0.045,-0.645 0.015,-0.075 0,-0.78 -0.015,-0.48 0.195,-0.66 0.03,-0.03 0.66,-0.315 0.06,-0.045 0.18,-0.12 0.93,-0.405 1.125,-0.405 0.03,0 0.15,0.06 0.135,0.06 0.195,0.075 0.21,0.3 0.705,0.735 0.045,0 0.075,-0.06 0.195,-0.42 0.675,-1.425 -0.015,-0.105 0.015,-0.285 0.09,-0.045 0.255,-0.12 0.345,-0.195 1.5,-0.57 l 1.365,0.78 0,0.465 z m -0.39,-0.3 q -0.42,-0.15 -0.6,-0.3 -0.045,-0.03 -0.24,-0.225 -0.12,-0.135 -0.21,-0.135 -0.27,0 -0.27,0.165 0,0.03 0.06,0.075 0.21,0.09 0.945,0.675 0.105,-0.06 0.225,-0.12 0.12,-0.075 0.09,-0.135 z m -0.57,0.27 q -0.825,-0.78 -0.9,-0.78 -0.03,0 -0.15,0.045 -0.105,0.045 -0.15,0.06 l 0,0.15 q 0,0.03 0.15,0.18 0.165,0.135 0.195,0.18 0.255,0.135 0.255,0.135 0.18,0.09 0.21,0.21 l 0.12,0 q 0.15,0 0.27,-0.18 z m -0.495,0.24 q -0.21,-0.135 -0.42,-0.27 -0.315,-0.21 -0.42,-0.54 l -0.09,0 q -0.195,0.135 -0.315,0.18 0.045,0.075 0.12,0.15 0.15,0.06 0.39,0.195 0.15,0.105 0.375,0.315 0.015,0.06 0.045,0.135 0.105,-0.06 0.315,-0.165 z m -0.78,0.555 q 0,-0.18 -0.375,-0.66 -0.09,-0.105 -0.255,-0.21 -0.39,0.6 -0.39,0.81 0.165,0.09 0.645,0.795 0.015,0 0.06,0 0.105,-0.15 0.105,-0.24 0,-0.09 -0.3,-0.465 -0.15,-0.195 -0.315,-0.39 0.015,-0.015 0.075,-0.015 0.21,0 0.495,0.555 0.045,0.03 0.105,0.075 0.15,-0.285 0.15,-0.255 z m -0.42,0.99 q 0,-0.06 -0.195,-0.33 -0.195,-0.285 -0.195,-0.3 -0.075,-0.135 -0.255,-0.3 -0.135,0.18 -0.135,0.3 0,0.03 0.03,0.12 0.03,0.075 0.03,0.105 0.375,0.345 0.615,0.645 0.105,-0.165 0.105,-0.24 z m -0.195,0.435 q 0,-0.21 -0.66,-0.825 -0.06,0.165 -0.06,0.135 0,0.165 0.045,0.225 0.195,0.24 0.48,0.69 0.105,0.03 0.105,0.03 0.09,-0.225 0.09,-0.255 z m -1.89,-1.38 q -0.06,-0.12 -0.105,-0.165 l -0.09,0 q -0.015,0.075 0.195,0.165 z m 1.68,1.875 q 0,-0.21 -0.54,-0.87 -0.06,0.03 -0.12,0.06 -0.045,0.015 -0.045,0.09 0,-0.12 0.03,0.3 0.195,0.24 0.6,0.69 0.075,-0.33 0.075,-0.27 z m -0.105,0.33 q -0.135,0 -0.33,-0.285 -0.18,-0.285 -0.27,-0.3 l 0,0.36 q 0,0.27 0.465,0.6 0.105,-0.24 0.135,-0.375 z m -0.915,-1.305 q -0.03,-0.045 -0.09,-0.15 0.015,0.075 -0.045,0.165 -0.09,-0.045 -0.105,-0.075 -0.135,-0.18 -0.45,-0.585 -0.135,-0.135 -0.36,-0.42 -0.315,0.045 -0.315,0.165 0,0.105 0.36,0.54 0.12,0.09 0.315,0.27 0.03,0.045 0.03,0.12 0.015,0.06 -0.09,0.105 -0.645,-0.63 -0.75,-1.035 l -0.09,0 q -0.135,0.06 -0.465,0.24 -0.12,0.045 -0.255,0.09 -0.24,0.12 -0.24,0.195 0,0.09 0.105,0.165 0.12,0.06 0.345,0.225 0.03,0.06 0.105,0.135 0.21,0.21 0.615,0.435 l 0,-0.075 q -0.285,-0.42 -0.615,-0.87 -0.045,-0.03 -0.135,-0.12 l 0.03,-0.045 q 0.075,0.015 0.225,0.045 -0.015,0.105 0.12,0.21 0.18,0.165 0.225,0.225 0.105,0.18 0.315,0.51 0.06,0.075 0.195,0.075 0.165,0 0.705,-0.285 0.12,-0.105 0.315,-0.255 z m 0.72,1.89 q 0,-0.075 -0.375,-0.525 -0.06,0.09 -0.06,0.21 0,0.225 0.315,0.57 0.12,-0.27 0.12,-0.255 z m -0.135,0.36 0,-0.105 q -0.15,-0.015 -0.27,-0.195 l 0,0.42 q 0.075,0.03 0.165,-0.015 0.105,-0.045 0.105,-0.105 z m -3.03,-0.87 q -0.03,-0.075 -0.165,-0.135 l -0.03,0.09 q 0.15,0.09 0.195,0.045 z m 0,0.69 q -0.09,-0.15 -0.165,-0.225 l 0,0.12 q 0.075,0.09 0.165,0.105 z m 0.045,0.855 q -0.03,-0.075 -0.135,-0.18 -0.03,0.03 -0.03,0.075 0,0.075 0.165,0.105 z m 0.78,1.335 -0.03,-0.075 -0.03,0.015 0.03,0.06 0.03,0 z m 2.685,2.97 q -0.045,-0.135 -0.135,-0.135 0,0.015 0.135,0.135 z m -2.715,-1.455 q 0,-0.03 -0.105,-0.03 l 0.09,0.09 q 0,-0.015 0.015,-0.06 z m -0.015,1.2 0,-0.12 q 0,0 -0.045,-0.015 -0.03,-0.015 -0.045,-0.015 0,0.06 0.09,0.15 z m -0.84,-0.63 q 0,-0.015 0,-0.045 -0.015,-0.03 -0.015,-0.045 -0.075,0 0.015,0.09 z m 0.825,1.395 0,-0.105 q -0.105,-0.105 -0.3,-0.24 0.09,0.12 0.3,0.345 z m -0.81,-0.63 q -0.06,-0.09 -0.15,-0.135 0,0.135 0.15,0.135 z m -0.09,0.345 0,-0.12 -0.045,0 0,0.12 0.045,0 z m 0.93,0.975 q -0.285,-0.3 -0.435,-0.39 0.03,0.09 0.435,0.39 z m -0.84,-0.54 q -0.075,-0.105 -0.18,-0.195 l 0,0.135 q 0.12,0.075 0.18,0.06 z m 0.915,1.635 q -0.06,-0.06 -0.12,-0.06 0.06,0.075 0.12,0.06 z m -0.9,-0.645 q -0.075,-0.165 -0.195,-0.27 l -0.03,0.15 q 0.15,0.09 0.225,0.12 z m 0.735,-9.39 -0.105,0 0,-0.045 0.105,0 0,0.045 z"
         style="font-style:normal;font-variant:normal;font-weight:normal;font-stretch:normal;font-family:Refuse;-inkscape-font-specification:Refuse;fill:#000000;fill-opacity:1;stroke:none;stroke-opacity:1"
         id="path4161" />
    </g>
  </g>
</svg>
